%TF.GenerationSoftware,KiCad,Pcbnew,9.0.4*%
%TF.CreationDate,2025-12-05T21:51:25+03:30*%
%TF.ProjectId,Bread_Board_Power_Supply001,42726561-645f-4426-9f61-72645f506f77,1*%
%TF.SameCoordinates,Original*%
%TF.FileFunction,Legend,Top*%
%TF.FilePolarity,Positive*%
%FSLAX46Y46*%
G04 Gerber Fmt 4.6, Leading zero omitted, Abs format (unit mm)*
G04 Created by KiCad (PCBNEW 9.0.4) date 2025-12-05 21:51:25*
%MOMM*%
%LPD*%
G01*
G04 APERTURE LIST*
%ADD10C,0.100000*%
%ADD11C,0.150000*%
%ADD12C,0.300000*%
%ADD13C,0.400000*%
%ADD14C,0.175000*%
%ADD15C,0.125000*%
%ADD16C,0.120000*%
G04 APERTURE END LIST*
D10*
D11*
X177002200Y-166007200D02*
X285002200Y-166007200D01*
X285002200Y-198007200D01*
X177002200Y-198007200D01*
X177002200Y-166007200D01*
D10*
D11*
X10000000Y-10000000D02*
X287002200Y-10000000D01*
X287002200Y-200007200D01*
X10000000Y-200007200D01*
X10000000Y-10000000D01*
D10*
D11*
X12000000Y-12000000D02*
X285002200Y-12000000D01*
X285002200Y-198007200D01*
X12000000Y-198007200D01*
X12000000Y-12000000D01*
D10*
D11*
X60000000Y-12000000D02*
X60000000Y-10000000D01*
D10*
D11*
X110000000Y-12000000D02*
X110000000Y-10000000D01*
D10*
D11*
X160000000Y-12000000D02*
X160000000Y-10000000D01*
D10*
D11*
X210000000Y-12000000D02*
X210000000Y-10000000D01*
D10*
D11*
X260000000Y-12000000D02*
X260000000Y-10000000D01*
D10*
D11*
X36089160Y-11593604D02*
X35346303Y-11593604D01*
X35717731Y-11593604D02*
X35717731Y-10293604D01*
X35717731Y-10293604D02*
X35593922Y-10479319D01*
X35593922Y-10479319D02*
X35470112Y-10603128D01*
X35470112Y-10603128D02*
X35346303Y-10665033D01*
D10*
D11*
X85346303Y-10417414D02*
X85408207Y-10355509D01*
X85408207Y-10355509D02*
X85532017Y-10293604D01*
X85532017Y-10293604D02*
X85841541Y-10293604D01*
X85841541Y-10293604D02*
X85965350Y-10355509D01*
X85965350Y-10355509D02*
X86027255Y-10417414D01*
X86027255Y-10417414D02*
X86089160Y-10541223D01*
X86089160Y-10541223D02*
X86089160Y-10665033D01*
X86089160Y-10665033D02*
X86027255Y-10850747D01*
X86027255Y-10850747D02*
X85284398Y-11593604D01*
X85284398Y-11593604D02*
X86089160Y-11593604D01*
D10*
D11*
X135284398Y-10293604D02*
X136089160Y-10293604D01*
X136089160Y-10293604D02*
X135655826Y-10788842D01*
X135655826Y-10788842D02*
X135841541Y-10788842D01*
X135841541Y-10788842D02*
X135965350Y-10850747D01*
X135965350Y-10850747D02*
X136027255Y-10912652D01*
X136027255Y-10912652D02*
X136089160Y-11036461D01*
X136089160Y-11036461D02*
X136089160Y-11345985D01*
X136089160Y-11345985D02*
X136027255Y-11469795D01*
X136027255Y-11469795D02*
X135965350Y-11531700D01*
X135965350Y-11531700D02*
X135841541Y-11593604D01*
X135841541Y-11593604D02*
X135470112Y-11593604D01*
X135470112Y-11593604D02*
X135346303Y-11531700D01*
X135346303Y-11531700D02*
X135284398Y-11469795D01*
D10*
D11*
X185965350Y-10726938D02*
X185965350Y-11593604D01*
X185655826Y-10231700D02*
X185346303Y-11160271D01*
X185346303Y-11160271D02*
X186151064Y-11160271D01*
D10*
D11*
X236027255Y-10293604D02*
X235408207Y-10293604D01*
X235408207Y-10293604D02*
X235346303Y-10912652D01*
X235346303Y-10912652D02*
X235408207Y-10850747D01*
X235408207Y-10850747D02*
X235532017Y-10788842D01*
X235532017Y-10788842D02*
X235841541Y-10788842D01*
X235841541Y-10788842D02*
X235965350Y-10850747D01*
X235965350Y-10850747D02*
X236027255Y-10912652D01*
X236027255Y-10912652D02*
X236089160Y-11036461D01*
X236089160Y-11036461D02*
X236089160Y-11345985D01*
X236089160Y-11345985D02*
X236027255Y-11469795D01*
X236027255Y-11469795D02*
X235965350Y-11531700D01*
X235965350Y-11531700D02*
X235841541Y-11593604D01*
X235841541Y-11593604D02*
X235532017Y-11593604D01*
X235532017Y-11593604D02*
X235408207Y-11531700D01*
X235408207Y-11531700D02*
X235346303Y-11469795D01*
D10*
D11*
X285965350Y-10293604D02*
X285717731Y-10293604D01*
X285717731Y-10293604D02*
X285593922Y-10355509D01*
X285593922Y-10355509D02*
X285532017Y-10417414D01*
X285532017Y-10417414D02*
X285408207Y-10603128D01*
X285408207Y-10603128D02*
X285346303Y-10850747D01*
X285346303Y-10850747D02*
X285346303Y-11345985D01*
X285346303Y-11345985D02*
X285408207Y-11469795D01*
X285408207Y-11469795D02*
X285470112Y-11531700D01*
X285470112Y-11531700D02*
X285593922Y-11593604D01*
X285593922Y-11593604D02*
X285841541Y-11593604D01*
X285841541Y-11593604D02*
X285965350Y-11531700D01*
X285965350Y-11531700D02*
X286027255Y-11469795D01*
X286027255Y-11469795D02*
X286089160Y-11345985D01*
X286089160Y-11345985D02*
X286089160Y-11036461D01*
X286089160Y-11036461D02*
X286027255Y-10912652D01*
X286027255Y-10912652D02*
X285965350Y-10850747D01*
X285965350Y-10850747D02*
X285841541Y-10788842D01*
X285841541Y-10788842D02*
X285593922Y-10788842D01*
X285593922Y-10788842D02*
X285470112Y-10850747D01*
X285470112Y-10850747D02*
X285408207Y-10912652D01*
X285408207Y-10912652D02*
X285346303Y-11036461D01*
D10*
D11*
X60000000Y-198007200D02*
X60000000Y-200007200D01*
D10*
D11*
X110000000Y-198007200D02*
X110000000Y-200007200D01*
D10*
D11*
X160000000Y-198007200D02*
X160000000Y-200007200D01*
D10*
D11*
X210000000Y-198007200D02*
X210000000Y-200007200D01*
D10*
D11*
X260000000Y-198007200D02*
X260000000Y-200007200D01*
D10*
D11*
X36089160Y-199600804D02*
X35346303Y-199600804D01*
X35717731Y-199600804D02*
X35717731Y-198300804D01*
X35717731Y-198300804D02*
X35593922Y-198486519D01*
X35593922Y-198486519D02*
X35470112Y-198610328D01*
X35470112Y-198610328D02*
X35346303Y-198672233D01*
D10*
D11*
X85346303Y-198424614D02*
X85408207Y-198362709D01*
X85408207Y-198362709D02*
X85532017Y-198300804D01*
X85532017Y-198300804D02*
X85841541Y-198300804D01*
X85841541Y-198300804D02*
X85965350Y-198362709D01*
X85965350Y-198362709D02*
X86027255Y-198424614D01*
X86027255Y-198424614D02*
X86089160Y-198548423D01*
X86089160Y-198548423D02*
X86089160Y-198672233D01*
X86089160Y-198672233D02*
X86027255Y-198857947D01*
X86027255Y-198857947D02*
X85284398Y-199600804D01*
X85284398Y-199600804D02*
X86089160Y-199600804D01*
D10*
D11*
X135284398Y-198300804D02*
X136089160Y-198300804D01*
X136089160Y-198300804D02*
X135655826Y-198796042D01*
X135655826Y-198796042D02*
X135841541Y-198796042D01*
X135841541Y-198796042D02*
X135965350Y-198857947D01*
X135965350Y-198857947D02*
X136027255Y-198919852D01*
X136027255Y-198919852D02*
X136089160Y-199043661D01*
X136089160Y-199043661D02*
X136089160Y-199353185D01*
X136089160Y-199353185D02*
X136027255Y-199476995D01*
X136027255Y-199476995D02*
X135965350Y-199538900D01*
X135965350Y-199538900D02*
X135841541Y-199600804D01*
X135841541Y-199600804D02*
X135470112Y-199600804D01*
X135470112Y-199600804D02*
X135346303Y-199538900D01*
X135346303Y-199538900D02*
X135284398Y-199476995D01*
D10*
D11*
X185965350Y-198734138D02*
X185965350Y-199600804D01*
X185655826Y-198238900D02*
X185346303Y-199167471D01*
X185346303Y-199167471D02*
X186151064Y-199167471D01*
D10*
D11*
X236027255Y-198300804D02*
X235408207Y-198300804D01*
X235408207Y-198300804D02*
X235346303Y-198919852D01*
X235346303Y-198919852D02*
X235408207Y-198857947D01*
X235408207Y-198857947D02*
X235532017Y-198796042D01*
X235532017Y-198796042D02*
X235841541Y-198796042D01*
X235841541Y-198796042D02*
X235965350Y-198857947D01*
X235965350Y-198857947D02*
X236027255Y-198919852D01*
X236027255Y-198919852D02*
X236089160Y-199043661D01*
X236089160Y-199043661D02*
X236089160Y-199353185D01*
X236089160Y-199353185D02*
X236027255Y-199476995D01*
X236027255Y-199476995D02*
X235965350Y-199538900D01*
X235965350Y-199538900D02*
X235841541Y-199600804D01*
X235841541Y-199600804D02*
X235532017Y-199600804D01*
X235532017Y-199600804D02*
X235408207Y-199538900D01*
X235408207Y-199538900D02*
X235346303Y-199476995D01*
D10*
D11*
X285965350Y-198300804D02*
X285717731Y-198300804D01*
X285717731Y-198300804D02*
X285593922Y-198362709D01*
X285593922Y-198362709D02*
X285532017Y-198424614D01*
X285532017Y-198424614D02*
X285408207Y-198610328D01*
X285408207Y-198610328D02*
X285346303Y-198857947D01*
X285346303Y-198857947D02*
X285346303Y-199353185D01*
X285346303Y-199353185D02*
X285408207Y-199476995D01*
X285408207Y-199476995D02*
X285470112Y-199538900D01*
X285470112Y-199538900D02*
X285593922Y-199600804D01*
X285593922Y-199600804D02*
X285841541Y-199600804D01*
X285841541Y-199600804D02*
X285965350Y-199538900D01*
X285965350Y-199538900D02*
X286027255Y-199476995D01*
X286027255Y-199476995D02*
X286089160Y-199353185D01*
X286089160Y-199353185D02*
X286089160Y-199043661D01*
X286089160Y-199043661D02*
X286027255Y-198919852D01*
X286027255Y-198919852D02*
X285965350Y-198857947D01*
X285965350Y-198857947D02*
X285841541Y-198796042D01*
X285841541Y-198796042D02*
X285593922Y-198796042D01*
X285593922Y-198796042D02*
X285470112Y-198857947D01*
X285470112Y-198857947D02*
X285408207Y-198919852D01*
X285408207Y-198919852D02*
X285346303Y-199043661D01*
D10*
D11*
X10000000Y-60000000D02*
X12000000Y-60000000D01*
D10*
D11*
X10000000Y-110000000D02*
X12000000Y-110000000D01*
D10*
D11*
X10000000Y-160000000D02*
X12000000Y-160000000D01*
D10*
D11*
X10690476Y-35222176D02*
X11309523Y-35222176D01*
X10566666Y-35593604D02*
X10999999Y-34293604D01*
X10999999Y-34293604D02*
X11433333Y-35593604D01*
D10*
D11*
X11092857Y-84912652D02*
X11278571Y-84974557D01*
X11278571Y-84974557D02*
X11340476Y-85036461D01*
X11340476Y-85036461D02*
X11402380Y-85160271D01*
X11402380Y-85160271D02*
X11402380Y-85345985D01*
X11402380Y-85345985D02*
X11340476Y-85469795D01*
X11340476Y-85469795D02*
X11278571Y-85531700D01*
X11278571Y-85531700D02*
X11154761Y-85593604D01*
X11154761Y-85593604D02*
X10659523Y-85593604D01*
X10659523Y-85593604D02*
X10659523Y-84293604D01*
X10659523Y-84293604D02*
X11092857Y-84293604D01*
X11092857Y-84293604D02*
X11216666Y-84355509D01*
X11216666Y-84355509D02*
X11278571Y-84417414D01*
X11278571Y-84417414D02*
X11340476Y-84541223D01*
X11340476Y-84541223D02*
X11340476Y-84665033D01*
X11340476Y-84665033D02*
X11278571Y-84788842D01*
X11278571Y-84788842D02*
X11216666Y-84850747D01*
X11216666Y-84850747D02*
X11092857Y-84912652D01*
X11092857Y-84912652D02*
X10659523Y-84912652D01*
D10*
D11*
X11402380Y-135469795D02*
X11340476Y-135531700D01*
X11340476Y-135531700D02*
X11154761Y-135593604D01*
X11154761Y-135593604D02*
X11030952Y-135593604D01*
X11030952Y-135593604D02*
X10845238Y-135531700D01*
X10845238Y-135531700D02*
X10721428Y-135407890D01*
X10721428Y-135407890D02*
X10659523Y-135284080D01*
X10659523Y-135284080D02*
X10597619Y-135036461D01*
X10597619Y-135036461D02*
X10597619Y-134850747D01*
X10597619Y-134850747D02*
X10659523Y-134603128D01*
X10659523Y-134603128D02*
X10721428Y-134479319D01*
X10721428Y-134479319D02*
X10845238Y-134355509D01*
X10845238Y-134355509D02*
X11030952Y-134293604D01*
X11030952Y-134293604D02*
X11154761Y-134293604D01*
X11154761Y-134293604D02*
X11340476Y-134355509D01*
X11340476Y-134355509D02*
X11402380Y-134417414D01*
D10*
D11*
X10659523Y-185593604D02*
X10659523Y-184293604D01*
X10659523Y-184293604D02*
X10969047Y-184293604D01*
X10969047Y-184293604D02*
X11154761Y-184355509D01*
X11154761Y-184355509D02*
X11278571Y-184479319D01*
X11278571Y-184479319D02*
X11340476Y-184603128D01*
X11340476Y-184603128D02*
X11402380Y-184850747D01*
X11402380Y-184850747D02*
X11402380Y-185036461D01*
X11402380Y-185036461D02*
X11340476Y-185284080D01*
X11340476Y-185284080D02*
X11278571Y-185407890D01*
X11278571Y-185407890D02*
X11154761Y-185531700D01*
X11154761Y-185531700D02*
X10969047Y-185593604D01*
X10969047Y-185593604D02*
X10659523Y-185593604D01*
D10*
D11*
X287002200Y-60000000D02*
X285002200Y-60000000D01*
D10*
D11*
X287002200Y-110000000D02*
X285002200Y-110000000D01*
D10*
D11*
X287002200Y-160000000D02*
X285002200Y-160000000D01*
D10*
D11*
X285692676Y-35222176D02*
X286311723Y-35222176D01*
X285568866Y-35593604D02*
X286002199Y-34293604D01*
X286002199Y-34293604D02*
X286435533Y-35593604D01*
D10*
D11*
X286095057Y-84912652D02*
X286280771Y-84974557D01*
X286280771Y-84974557D02*
X286342676Y-85036461D01*
X286342676Y-85036461D02*
X286404580Y-85160271D01*
X286404580Y-85160271D02*
X286404580Y-85345985D01*
X286404580Y-85345985D02*
X286342676Y-85469795D01*
X286342676Y-85469795D02*
X286280771Y-85531700D01*
X286280771Y-85531700D02*
X286156961Y-85593604D01*
X286156961Y-85593604D02*
X285661723Y-85593604D01*
X285661723Y-85593604D02*
X285661723Y-84293604D01*
X285661723Y-84293604D02*
X286095057Y-84293604D01*
X286095057Y-84293604D02*
X286218866Y-84355509D01*
X286218866Y-84355509D02*
X286280771Y-84417414D01*
X286280771Y-84417414D02*
X286342676Y-84541223D01*
X286342676Y-84541223D02*
X286342676Y-84665033D01*
X286342676Y-84665033D02*
X286280771Y-84788842D01*
X286280771Y-84788842D02*
X286218866Y-84850747D01*
X286218866Y-84850747D02*
X286095057Y-84912652D01*
X286095057Y-84912652D02*
X285661723Y-84912652D01*
D10*
D11*
X286404580Y-135469795D02*
X286342676Y-135531700D01*
X286342676Y-135531700D02*
X286156961Y-135593604D01*
X286156961Y-135593604D02*
X286033152Y-135593604D01*
X286033152Y-135593604D02*
X285847438Y-135531700D01*
X285847438Y-135531700D02*
X285723628Y-135407890D01*
X285723628Y-135407890D02*
X285661723Y-135284080D01*
X285661723Y-135284080D02*
X285599819Y-135036461D01*
X285599819Y-135036461D02*
X285599819Y-134850747D01*
X285599819Y-134850747D02*
X285661723Y-134603128D01*
X285661723Y-134603128D02*
X285723628Y-134479319D01*
X285723628Y-134479319D02*
X285847438Y-134355509D01*
X285847438Y-134355509D02*
X286033152Y-134293604D01*
X286033152Y-134293604D02*
X286156961Y-134293604D01*
X286156961Y-134293604D02*
X286342676Y-134355509D01*
X286342676Y-134355509D02*
X286404580Y-134417414D01*
D10*
D11*
X285661723Y-185593604D02*
X285661723Y-184293604D01*
X285661723Y-184293604D02*
X285971247Y-184293604D01*
X285971247Y-184293604D02*
X286156961Y-184355509D01*
X286156961Y-184355509D02*
X286280771Y-184479319D01*
X286280771Y-184479319D02*
X286342676Y-184603128D01*
X286342676Y-184603128D02*
X286404580Y-184850747D01*
X286404580Y-184850747D02*
X286404580Y-185036461D01*
X286404580Y-185036461D02*
X286342676Y-185284080D01*
X286342676Y-185284080D02*
X286280771Y-185407890D01*
X286280771Y-185407890D02*
X286156961Y-185531700D01*
X286156961Y-185531700D02*
X285971247Y-185593604D01*
X285971247Y-185593604D02*
X285661723Y-185593604D01*
D10*
D11*
X200458026Y-193793328D02*
X200458026Y-192293328D01*
X200458026Y-192293328D02*
X200815169Y-192293328D01*
X200815169Y-192293328D02*
X201029455Y-192364757D01*
X201029455Y-192364757D02*
X201172312Y-192507614D01*
X201172312Y-192507614D02*
X201243741Y-192650471D01*
X201243741Y-192650471D02*
X201315169Y-192936185D01*
X201315169Y-192936185D02*
X201315169Y-193150471D01*
X201315169Y-193150471D02*
X201243741Y-193436185D01*
X201243741Y-193436185D02*
X201172312Y-193579042D01*
X201172312Y-193579042D02*
X201029455Y-193721900D01*
X201029455Y-193721900D02*
X200815169Y-193793328D01*
X200815169Y-193793328D02*
X200458026Y-193793328D01*
X202600884Y-193793328D02*
X202600884Y-193007614D01*
X202600884Y-193007614D02*
X202529455Y-192864757D01*
X202529455Y-192864757D02*
X202386598Y-192793328D01*
X202386598Y-192793328D02*
X202100884Y-192793328D01*
X202100884Y-192793328D02*
X201958026Y-192864757D01*
X202600884Y-193721900D02*
X202458026Y-193793328D01*
X202458026Y-193793328D02*
X202100884Y-193793328D01*
X202100884Y-193793328D02*
X201958026Y-193721900D01*
X201958026Y-193721900D02*
X201886598Y-193579042D01*
X201886598Y-193579042D02*
X201886598Y-193436185D01*
X201886598Y-193436185D02*
X201958026Y-193293328D01*
X201958026Y-193293328D02*
X202100884Y-193221900D01*
X202100884Y-193221900D02*
X202458026Y-193221900D01*
X202458026Y-193221900D02*
X202600884Y-193150471D01*
X203100884Y-192793328D02*
X203672312Y-192793328D01*
X203315169Y-192293328D02*
X203315169Y-193579042D01*
X203315169Y-193579042D02*
X203386598Y-193721900D01*
X203386598Y-193721900D02*
X203529455Y-193793328D01*
X203529455Y-193793328D02*
X203672312Y-193793328D01*
X204743741Y-193721900D02*
X204600884Y-193793328D01*
X204600884Y-193793328D02*
X204315170Y-193793328D01*
X204315170Y-193793328D02*
X204172312Y-193721900D01*
X204172312Y-193721900D02*
X204100884Y-193579042D01*
X204100884Y-193579042D02*
X204100884Y-193007614D01*
X204100884Y-193007614D02*
X204172312Y-192864757D01*
X204172312Y-192864757D02*
X204315170Y-192793328D01*
X204315170Y-192793328D02*
X204600884Y-192793328D01*
X204600884Y-192793328D02*
X204743741Y-192864757D01*
X204743741Y-192864757D02*
X204815170Y-193007614D01*
X204815170Y-193007614D02*
X204815170Y-193150471D01*
X204815170Y-193150471D02*
X204100884Y-193293328D01*
X205458026Y-193650471D02*
X205529455Y-193721900D01*
X205529455Y-193721900D02*
X205458026Y-193793328D01*
X205458026Y-193793328D02*
X205386598Y-193721900D01*
X205386598Y-193721900D02*
X205458026Y-193650471D01*
X205458026Y-193650471D02*
X205458026Y-193793328D01*
X205458026Y-192864757D02*
X205529455Y-192936185D01*
X205529455Y-192936185D02*
X205458026Y-193007614D01*
X205458026Y-193007614D02*
X205386598Y-192936185D01*
X205386598Y-192936185D02*
X205458026Y-192864757D01*
X205458026Y-192864757D02*
X205458026Y-193007614D01*
X207243741Y-192436185D02*
X207315169Y-192364757D01*
X207315169Y-192364757D02*
X207458027Y-192293328D01*
X207458027Y-192293328D02*
X207815169Y-192293328D01*
X207815169Y-192293328D02*
X207958027Y-192364757D01*
X207958027Y-192364757D02*
X208029455Y-192436185D01*
X208029455Y-192436185D02*
X208100884Y-192579042D01*
X208100884Y-192579042D02*
X208100884Y-192721900D01*
X208100884Y-192721900D02*
X208029455Y-192936185D01*
X208029455Y-192936185D02*
X207172312Y-193793328D01*
X207172312Y-193793328D02*
X208100884Y-193793328D01*
X209029455Y-192293328D02*
X209172312Y-192293328D01*
X209172312Y-192293328D02*
X209315169Y-192364757D01*
X209315169Y-192364757D02*
X209386598Y-192436185D01*
X209386598Y-192436185D02*
X209458026Y-192579042D01*
X209458026Y-192579042D02*
X209529455Y-192864757D01*
X209529455Y-192864757D02*
X209529455Y-193221900D01*
X209529455Y-193221900D02*
X209458026Y-193507614D01*
X209458026Y-193507614D02*
X209386598Y-193650471D01*
X209386598Y-193650471D02*
X209315169Y-193721900D01*
X209315169Y-193721900D02*
X209172312Y-193793328D01*
X209172312Y-193793328D02*
X209029455Y-193793328D01*
X209029455Y-193793328D02*
X208886598Y-193721900D01*
X208886598Y-193721900D02*
X208815169Y-193650471D01*
X208815169Y-193650471D02*
X208743740Y-193507614D01*
X208743740Y-193507614D02*
X208672312Y-193221900D01*
X208672312Y-193221900D02*
X208672312Y-192864757D01*
X208672312Y-192864757D02*
X208743740Y-192579042D01*
X208743740Y-192579042D02*
X208815169Y-192436185D01*
X208815169Y-192436185D02*
X208886598Y-192364757D01*
X208886598Y-192364757D02*
X209029455Y-192293328D01*
X210100883Y-192436185D02*
X210172311Y-192364757D01*
X210172311Y-192364757D02*
X210315169Y-192293328D01*
X210315169Y-192293328D02*
X210672311Y-192293328D01*
X210672311Y-192293328D02*
X210815169Y-192364757D01*
X210815169Y-192364757D02*
X210886597Y-192436185D01*
X210886597Y-192436185D02*
X210958026Y-192579042D01*
X210958026Y-192579042D02*
X210958026Y-192721900D01*
X210958026Y-192721900D02*
X210886597Y-192936185D01*
X210886597Y-192936185D02*
X210029454Y-193793328D01*
X210029454Y-193793328D02*
X210958026Y-193793328D01*
X212315168Y-192293328D02*
X211600882Y-192293328D01*
X211600882Y-192293328D02*
X211529454Y-193007614D01*
X211529454Y-193007614D02*
X211600882Y-192936185D01*
X211600882Y-192936185D02*
X211743740Y-192864757D01*
X211743740Y-192864757D02*
X212100882Y-192864757D01*
X212100882Y-192864757D02*
X212243740Y-192936185D01*
X212243740Y-192936185D02*
X212315168Y-193007614D01*
X212315168Y-193007614D02*
X212386597Y-193150471D01*
X212386597Y-193150471D02*
X212386597Y-193507614D01*
X212386597Y-193507614D02*
X212315168Y-193650471D01*
X212315168Y-193650471D02*
X212243740Y-193721900D01*
X212243740Y-193721900D02*
X212100882Y-193793328D01*
X212100882Y-193793328D02*
X211743740Y-193793328D01*
X211743740Y-193793328D02*
X211600882Y-193721900D01*
X211600882Y-193721900D02*
X211529454Y-193650471D01*
X213029453Y-193221900D02*
X214172311Y-193221900D01*
X215672311Y-193793328D02*
X214815168Y-193793328D01*
X215243739Y-193793328D02*
X215243739Y-192293328D01*
X215243739Y-192293328D02*
X215100882Y-192507614D01*
X215100882Y-192507614D02*
X214958025Y-192650471D01*
X214958025Y-192650471D02*
X214815168Y-192721900D01*
X216243739Y-192436185D02*
X216315167Y-192364757D01*
X216315167Y-192364757D02*
X216458025Y-192293328D01*
X216458025Y-192293328D02*
X216815167Y-192293328D01*
X216815167Y-192293328D02*
X216958025Y-192364757D01*
X216958025Y-192364757D02*
X217029453Y-192436185D01*
X217029453Y-192436185D02*
X217100882Y-192579042D01*
X217100882Y-192579042D02*
X217100882Y-192721900D01*
X217100882Y-192721900D02*
X217029453Y-192936185D01*
X217029453Y-192936185D02*
X216172310Y-193793328D01*
X216172310Y-193793328D02*
X217100882Y-193793328D01*
X217743738Y-193221900D02*
X218886596Y-193221900D01*
X219886596Y-192293328D02*
X220029453Y-192293328D01*
X220029453Y-192293328D02*
X220172310Y-192364757D01*
X220172310Y-192364757D02*
X220243739Y-192436185D01*
X220243739Y-192436185D02*
X220315167Y-192579042D01*
X220315167Y-192579042D02*
X220386596Y-192864757D01*
X220386596Y-192864757D02*
X220386596Y-193221900D01*
X220386596Y-193221900D02*
X220315167Y-193507614D01*
X220315167Y-193507614D02*
X220243739Y-193650471D01*
X220243739Y-193650471D02*
X220172310Y-193721900D01*
X220172310Y-193721900D02*
X220029453Y-193793328D01*
X220029453Y-193793328D02*
X219886596Y-193793328D01*
X219886596Y-193793328D02*
X219743739Y-193721900D01*
X219743739Y-193721900D02*
X219672310Y-193650471D01*
X219672310Y-193650471D02*
X219600881Y-193507614D01*
X219600881Y-193507614D02*
X219529453Y-193221900D01*
X219529453Y-193221900D02*
X219529453Y-192864757D01*
X219529453Y-192864757D02*
X219600881Y-192579042D01*
X219600881Y-192579042D02*
X219672310Y-192436185D01*
X219672310Y-192436185D02*
X219743739Y-192364757D01*
X219743739Y-192364757D02*
X219886596Y-192293328D01*
X221743738Y-192293328D02*
X221029452Y-192293328D01*
X221029452Y-192293328D02*
X220958024Y-193007614D01*
X220958024Y-193007614D02*
X221029452Y-192936185D01*
X221029452Y-192936185D02*
X221172310Y-192864757D01*
X221172310Y-192864757D02*
X221529452Y-192864757D01*
X221529452Y-192864757D02*
X221672310Y-192936185D01*
X221672310Y-192936185D02*
X221743738Y-193007614D01*
X221743738Y-193007614D02*
X221815167Y-193150471D01*
X221815167Y-193150471D02*
X221815167Y-193507614D01*
X221815167Y-193507614D02*
X221743738Y-193650471D01*
X221743738Y-193650471D02*
X221672310Y-193721900D01*
X221672310Y-193721900D02*
X221529452Y-193793328D01*
X221529452Y-193793328D02*
X221172310Y-193793328D01*
X221172310Y-193793328D02*
X221029452Y-193721900D01*
X221029452Y-193721900D02*
X220958024Y-193650471D01*
D10*
D11*
X177002200Y-194507200D02*
X285002200Y-194507200D01*
D10*
D11*
X178458026Y-196593328D02*
X178458026Y-195093328D01*
X179315169Y-196593328D02*
X178672312Y-195736185D01*
X179315169Y-195093328D02*
X178458026Y-195950471D01*
X179958026Y-196593328D02*
X179958026Y-195593328D01*
X179958026Y-195093328D02*
X179886598Y-195164757D01*
X179886598Y-195164757D02*
X179958026Y-195236185D01*
X179958026Y-195236185D02*
X180029455Y-195164757D01*
X180029455Y-195164757D02*
X179958026Y-195093328D01*
X179958026Y-195093328D02*
X179958026Y-195236185D01*
X181529455Y-196450471D02*
X181458027Y-196521900D01*
X181458027Y-196521900D02*
X181243741Y-196593328D01*
X181243741Y-196593328D02*
X181100884Y-196593328D01*
X181100884Y-196593328D02*
X180886598Y-196521900D01*
X180886598Y-196521900D02*
X180743741Y-196379042D01*
X180743741Y-196379042D02*
X180672312Y-196236185D01*
X180672312Y-196236185D02*
X180600884Y-195950471D01*
X180600884Y-195950471D02*
X180600884Y-195736185D01*
X180600884Y-195736185D02*
X180672312Y-195450471D01*
X180672312Y-195450471D02*
X180743741Y-195307614D01*
X180743741Y-195307614D02*
X180886598Y-195164757D01*
X180886598Y-195164757D02*
X181100884Y-195093328D01*
X181100884Y-195093328D02*
X181243741Y-195093328D01*
X181243741Y-195093328D02*
X181458027Y-195164757D01*
X181458027Y-195164757D02*
X181529455Y-195236185D01*
X182815170Y-196593328D02*
X182815170Y-195807614D01*
X182815170Y-195807614D02*
X182743741Y-195664757D01*
X182743741Y-195664757D02*
X182600884Y-195593328D01*
X182600884Y-195593328D02*
X182315170Y-195593328D01*
X182315170Y-195593328D02*
X182172312Y-195664757D01*
X182815170Y-196521900D02*
X182672312Y-196593328D01*
X182672312Y-196593328D02*
X182315170Y-196593328D01*
X182315170Y-196593328D02*
X182172312Y-196521900D01*
X182172312Y-196521900D02*
X182100884Y-196379042D01*
X182100884Y-196379042D02*
X182100884Y-196236185D01*
X182100884Y-196236185D02*
X182172312Y-196093328D01*
X182172312Y-196093328D02*
X182315170Y-196021900D01*
X182315170Y-196021900D02*
X182672312Y-196021900D01*
X182672312Y-196021900D02*
X182815170Y-195950471D01*
X184172313Y-196593328D02*
X184172313Y-195093328D01*
X184172313Y-196521900D02*
X184029455Y-196593328D01*
X184029455Y-196593328D02*
X183743741Y-196593328D01*
X183743741Y-196593328D02*
X183600884Y-196521900D01*
X183600884Y-196521900D02*
X183529455Y-196450471D01*
X183529455Y-196450471D02*
X183458027Y-196307614D01*
X183458027Y-196307614D02*
X183458027Y-195879042D01*
X183458027Y-195879042D02*
X183529455Y-195736185D01*
X183529455Y-195736185D02*
X183600884Y-195664757D01*
X183600884Y-195664757D02*
X183743741Y-195593328D01*
X183743741Y-195593328D02*
X184029455Y-195593328D01*
X184029455Y-195593328D02*
X184172313Y-195664757D01*
X186029455Y-195807614D02*
X186529455Y-195807614D01*
X186743741Y-196593328D02*
X186029455Y-196593328D01*
X186029455Y-196593328D02*
X186029455Y-195093328D01*
X186029455Y-195093328D02*
X186743741Y-195093328D01*
X187386598Y-196450471D02*
X187458027Y-196521900D01*
X187458027Y-196521900D02*
X187386598Y-196593328D01*
X187386598Y-196593328D02*
X187315170Y-196521900D01*
X187315170Y-196521900D02*
X187386598Y-196450471D01*
X187386598Y-196450471D02*
X187386598Y-196593328D01*
X188100884Y-196593328D02*
X188100884Y-195093328D01*
X188100884Y-195093328D02*
X188458027Y-195093328D01*
X188458027Y-195093328D02*
X188672313Y-195164757D01*
X188672313Y-195164757D02*
X188815170Y-195307614D01*
X188815170Y-195307614D02*
X188886599Y-195450471D01*
X188886599Y-195450471D02*
X188958027Y-195736185D01*
X188958027Y-195736185D02*
X188958027Y-195950471D01*
X188958027Y-195950471D02*
X188886599Y-196236185D01*
X188886599Y-196236185D02*
X188815170Y-196379042D01*
X188815170Y-196379042D02*
X188672313Y-196521900D01*
X188672313Y-196521900D02*
X188458027Y-196593328D01*
X188458027Y-196593328D02*
X188100884Y-196593328D01*
X189600884Y-196450471D02*
X189672313Y-196521900D01*
X189672313Y-196521900D02*
X189600884Y-196593328D01*
X189600884Y-196593328D02*
X189529456Y-196521900D01*
X189529456Y-196521900D02*
X189600884Y-196450471D01*
X189600884Y-196450471D02*
X189600884Y-196593328D01*
X190243742Y-196164757D02*
X190958028Y-196164757D01*
X190100885Y-196593328D02*
X190600885Y-195093328D01*
X190600885Y-195093328D02*
X191100885Y-196593328D01*
X191600884Y-196450471D02*
X191672313Y-196521900D01*
X191672313Y-196521900D02*
X191600884Y-196593328D01*
X191600884Y-196593328D02*
X191529456Y-196521900D01*
X191529456Y-196521900D02*
X191600884Y-196450471D01*
X191600884Y-196450471D02*
X191600884Y-196593328D01*
X193529456Y-196593328D02*
X193815170Y-196593328D01*
X193815170Y-196593328D02*
X193958027Y-196521900D01*
X193958027Y-196521900D02*
X194029456Y-196450471D01*
X194029456Y-196450471D02*
X194172313Y-196236185D01*
X194172313Y-196236185D02*
X194243742Y-195950471D01*
X194243742Y-195950471D02*
X194243742Y-195379042D01*
X194243742Y-195379042D02*
X194172313Y-195236185D01*
X194172313Y-195236185D02*
X194100885Y-195164757D01*
X194100885Y-195164757D02*
X193958027Y-195093328D01*
X193958027Y-195093328D02*
X193672313Y-195093328D01*
X193672313Y-195093328D02*
X193529456Y-195164757D01*
X193529456Y-195164757D02*
X193458027Y-195236185D01*
X193458027Y-195236185D02*
X193386599Y-195379042D01*
X193386599Y-195379042D02*
X193386599Y-195736185D01*
X193386599Y-195736185D02*
X193458027Y-195879042D01*
X193458027Y-195879042D02*
X193529456Y-195950471D01*
X193529456Y-195950471D02*
X193672313Y-196021900D01*
X193672313Y-196021900D02*
X193958027Y-196021900D01*
X193958027Y-196021900D02*
X194100885Y-195950471D01*
X194100885Y-195950471D02*
X194172313Y-195879042D01*
X194172313Y-195879042D02*
X194243742Y-195736185D01*
X194886598Y-196450471D02*
X194958027Y-196521900D01*
X194958027Y-196521900D02*
X194886598Y-196593328D01*
X194886598Y-196593328D02*
X194815170Y-196521900D01*
X194815170Y-196521900D02*
X194886598Y-196450471D01*
X194886598Y-196450471D02*
X194886598Y-196593328D01*
X195886599Y-195093328D02*
X196029456Y-195093328D01*
X196029456Y-195093328D02*
X196172313Y-195164757D01*
X196172313Y-195164757D02*
X196243742Y-195236185D01*
X196243742Y-195236185D02*
X196315170Y-195379042D01*
X196315170Y-195379042D02*
X196386599Y-195664757D01*
X196386599Y-195664757D02*
X196386599Y-196021900D01*
X196386599Y-196021900D02*
X196315170Y-196307614D01*
X196315170Y-196307614D02*
X196243742Y-196450471D01*
X196243742Y-196450471D02*
X196172313Y-196521900D01*
X196172313Y-196521900D02*
X196029456Y-196593328D01*
X196029456Y-196593328D02*
X195886599Y-196593328D01*
X195886599Y-196593328D02*
X195743742Y-196521900D01*
X195743742Y-196521900D02*
X195672313Y-196450471D01*
X195672313Y-196450471D02*
X195600884Y-196307614D01*
X195600884Y-196307614D02*
X195529456Y-196021900D01*
X195529456Y-196021900D02*
X195529456Y-195664757D01*
X195529456Y-195664757D02*
X195600884Y-195379042D01*
X195600884Y-195379042D02*
X195672313Y-195236185D01*
X195672313Y-195236185D02*
X195743742Y-195164757D01*
X195743742Y-195164757D02*
X195886599Y-195093328D01*
X197029455Y-196450471D02*
X197100884Y-196521900D01*
X197100884Y-196521900D02*
X197029455Y-196593328D01*
X197029455Y-196593328D02*
X196958027Y-196521900D01*
X196958027Y-196521900D02*
X197029455Y-196450471D01*
X197029455Y-196450471D02*
X197029455Y-196593328D01*
X198386599Y-195593328D02*
X198386599Y-196593328D01*
X198029456Y-195021900D02*
X197672313Y-196093328D01*
X197672313Y-196093328D02*
X198600884Y-196093328D01*
D10*
D11*
X177002200Y-191507200D02*
X285002200Y-191507200D01*
D10*
D12*
X264413853Y-193785528D02*
X263913853Y-193071242D01*
X263556710Y-193785528D02*
X263556710Y-192285528D01*
X263556710Y-192285528D02*
X264128139Y-192285528D01*
X264128139Y-192285528D02*
X264270996Y-192356957D01*
X264270996Y-192356957D02*
X264342425Y-192428385D01*
X264342425Y-192428385D02*
X264413853Y-192571242D01*
X264413853Y-192571242D02*
X264413853Y-192785528D01*
X264413853Y-192785528D02*
X264342425Y-192928385D01*
X264342425Y-192928385D02*
X264270996Y-192999814D01*
X264270996Y-192999814D02*
X264128139Y-193071242D01*
X264128139Y-193071242D02*
X263556710Y-193071242D01*
X265628139Y-193714100D02*
X265485282Y-193785528D01*
X265485282Y-193785528D02*
X265199568Y-193785528D01*
X265199568Y-193785528D02*
X265056710Y-193714100D01*
X265056710Y-193714100D02*
X264985282Y-193571242D01*
X264985282Y-193571242D02*
X264985282Y-192999814D01*
X264985282Y-192999814D02*
X265056710Y-192856957D01*
X265056710Y-192856957D02*
X265199568Y-192785528D01*
X265199568Y-192785528D02*
X265485282Y-192785528D01*
X265485282Y-192785528D02*
X265628139Y-192856957D01*
X265628139Y-192856957D02*
X265699568Y-192999814D01*
X265699568Y-192999814D02*
X265699568Y-193142671D01*
X265699568Y-193142671D02*
X264985282Y-193285528D01*
X266199567Y-192785528D02*
X266556710Y-193785528D01*
X266556710Y-193785528D02*
X266913853Y-192785528D01*
X267485281Y-193642671D02*
X267556710Y-193714100D01*
X267556710Y-193714100D02*
X267485281Y-193785528D01*
X267485281Y-193785528D02*
X267413853Y-193714100D01*
X267413853Y-193714100D02*
X267485281Y-193642671D01*
X267485281Y-193642671D02*
X267485281Y-193785528D01*
X267485281Y-192856957D02*
X267556710Y-192928385D01*
X267556710Y-192928385D02*
X267485281Y-192999814D01*
X267485281Y-192999814D02*
X267413853Y-192928385D01*
X267413853Y-192928385D02*
X267485281Y-192856957D01*
X267485281Y-192856957D02*
X267485281Y-192999814D01*
X270128139Y-193785528D02*
X269270996Y-193785528D01*
X269699567Y-193785528D02*
X269699567Y-192285528D01*
X269699567Y-192285528D02*
X269556710Y-192499814D01*
X269556710Y-192499814D02*
X269413853Y-192642671D01*
X269413853Y-192642671D02*
X269270996Y-192714100D01*
D10*
D11*
X178386598Y-193721900D02*
X178600884Y-193793328D01*
X178600884Y-193793328D02*
X178958026Y-193793328D01*
X178958026Y-193793328D02*
X179100884Y-193721900D01*
X179100884Y-193721900D02*
X179172312Y-193650471D01*
X179172312Y-193650471D02*
X179243741Y-193507614D01*
X179243741Y-193507614D02*
X179243741Y-193364757D01*
X179243741Y-193364757D02*
X179172312Y-193221900D01*
X179172312Y-193221900D02*
X179100884Y-193150471D01*
X179100884Y-193150471D02*
X178958026Y-193079042D01*
X178958026Y-193079042D02*
X178672312Y-193007614D01*
X178672312Y-193007614D02*
X178529455Y-192936185D01*
X178529455Y-192936185D02*
X178458026Y-192864757D01*
X178458026Y-192864757D02*
X178386598Y-192721900D01*
X178386598Y-192721900D02*
X178386598Y-192579042D01*
X178386598Y-192579042D02*
X178458026Y-192436185D01*
X178458026Y-192436185D02*
X178529455Y-192364757D01*
X178529455Y-192364757D02*
X178672312Y-192293328D01*
X178672312Y-192293328D02*
X179029455Y-192293328D01*
X179029455Y-192293328D02*
X179243741Y-192364757D01*
X179886597Y-193793328D02*
X179886597Y-192793328D01*
X179886597Y-192293328D02*
X179815169Y-192364757D01*
X179815169Y-192364757D02*
X179886597Y-192436185D01*
X179886597Y-192436185D02*
X179958026Y-192364757D01*
X179958026Y-192364757D02*
X179886597Y-192293328D01*
X179886597Y-192293328D02*
X179886597Y-192436185D01*
X180458026Y-192793328D02*
X181243741Y-192793328D01*
X181243741Y-192793328D02*
X180458026Y-193793328D01*
X180458026Y-193793328D02*
X181243741Y-193793328D01*
X182386598Y-193721900D02*
X182243741Y-193793328D01*
X182243741Y-193793328D02*
X181958027Y-193793328D01*
X181958027Y-193793328D02*
X181815169Y-193721900D01*
X181815169Y-193721900D02*
X181743741Y-193579042D01*
X181743741Y-193579042D02*
X181743741Y-193007614D01*
X181743741Y-193007614D02*
X181815169Y-192864757D01*
X181815169Y-192864757D02*
X181958027Y-192793328D01*
X181958027Y-192793328D02*
X182243741Y-192793328D01*
X182243741Y-192793328D02*
X182386598Y-192864757D01*
X182386598Y-192864757D02*
X182458027Y-193007614D01*
X182458027Y-193007614D02*
X182458027Y-193150471D01*
X182458027Y-193150471D02*
X181743741Y-193293328D01*
X183100883Y-193650471D02*
X183172312Y-193721900D01*
X183172312Y-193721900D02*
X183100883Y-193793328D01*
X183100883Y-193793328D02*
X183029455Y-193721900D01*
X183029455Y-193721900D02*
X183100883Y-193650471D01*
X183100883Y-193650471D02*
X183100883Y-193793328D01*
X183100883Y-192864757D02*
X183172312Y-192936185D01*
X183172312Y-192936185D02*
X183100883Y-193007614D01*
X183100883Y-193007614D02*
X183029455Y-192936185D01*
X183029455Y-192936185D02*
X183100883Y-192864757D01*
X183100883Y-192864757D02*
X183100883Y-193007614D01*
X184886598Y-193364757D02*
X185600884Y-193364757D01*
X184743741Y-193793328D02*
X185243741Y-192293328D01*
X185243741Y-192293328D02*
X185743741Y-193793328D01*
X186886598Y-192793328D02*
X186886598Y-193793328D01*
X186529455Y-192221900D02*
X186172312Y-193293328D01*
X186172312Y-193293328D02*
X187100883Y-193293328D01*
D10*
D11*
X263458026Y-196593328D02*
X263458026Y-195093328D01*
X264815170Y-196593328D02*
X264815170Y-195093328D01*
X264815170Y-196521900D02*
X264672312Y-196593328D01*
X264672312Y-196593328D02*
X264386598Y-196593328D01*
X264386598Y-196593328D02*
X264243741Y-196521900D01*
X264243741Y-196521900D02*
X264172312Y-196450471D01*
X264172312Y-196450471D02*
X264100884Y-196307614D01*
X264100884Y-196307614D02*
X264100884Y-195879042D01*
X264100884Y-195879042D02*
X264172312Y-195736185D01*
X264172312Y-195736185D02*
X264243741Y-195664757D01*
X264243741Y-195664757D02*
X264386598Y-195593328D01*
X264386598Y-195593328D02*
X264672312Y-195593328D01*
X264672312Y-195593328D02*
X264815170Y-195664757D01*
X265529455Y-196450471D02*
X265600884Y-196521900D01*
X265600884Y-196521900D02*
X265529455Y-196593328D01*
X265529455Y-196593328D02*
X265458027Y-196521900D01*
X265458027Y-196521900D02*
X265529455Y-196450471D01*
X265529455Y-196450471D02*
X265529455Y-196593328D01*
X265529455Y-195664757D02*
X265600884Y-195736185D01*
X265600884Y-195736185D02*
X265529455Y-195807614D01*
X265529455Y-195807614D02*
X265458027Y-195736185D01*
X265458027Y-195736185D02*
X265529455Y-195664757D01*
X265529455Y-195664757D02*
X265529455Y-195807614D01*
X268100884Y-195093328D02*
X267386598Y-195093328D01*
X267386598Y-195093328D02*
X267315170Y-195807614D01*
X267315170Y-195807614D02*
X267386598Y-195736185D01*
X267386598Y-195736185D02*
X267529456Y-195664757D01*
X267529456Y-195664757D02*
X267886598Y-195664757D01*
X267886598Y-195664757D02*
X268029456Y-195736185D01*
X268029456Y-195736185D02*
X268100884Y-195807614D01*
X268100884Y-195807614D02*
X268172313Y-195950471D01*
X268172313Y-195950471D02*
X268172313Y-196307614D01*
X268172313Y-196307614D02*
X268100884Y-196450471D01*
X268100884Y-196450471D02*
X268029456Y-196521900D01*
X268029456Y-196521900D02*
X267886598Y-196593328D01*
X267886598Y-196593328D02*
X267529456Y-196593328D01*
X267529456Y-196593328D02*
X267386598Y-196521900D01*
X267386598Y-196521900D02*
X267315170Y-196450471D01*
X269886598Y-195021900D02*
X268600884Y-196950471D01*
X271172313Y-196593328D02*
X270315170Y-196593328D01*
X270743741Y-196593328D02*
X270743741Y-195093328D01*
X270743741Y-195093328D02*
X270600884Y-195307614D01*
X270600884Y-195307614D02*
X270458027Y-195450471D01*
X270458027Y-195450471D02*
X270315170Y-195521900D01*
X271743741Y-195236185D02*
X271815169Y-195164757D01*
X271815169Y-195164757D02*
X271958027Y-195093328D01*
X271958027Y-195093328D02*
X272315169Y-195093328D01*
X272315169Y-195093328D02*
X272458027Y-195164757D01*
X272458027Y-195164757D02*
X272529455Y-195236185D01*
X272529455Y-195236185D02*
X272600884Y-195379042D01*
X272600884Y-195379042D02*
X272600884Y-195521900D01*
X272600884Y-195521900D02*
X272529455Y-195736185D01*
X272529455Y-195736185D02*
X271672312Y-196593328D01*
X271672312Y-196593328D02*
X272600884Y-196593328D01*
D10*
D11*
X177002200Y-187507200D02*
X285002200Y-187507200D01*
D10*
D13*
X178693928Y-188211638D02*
X179836785Y-188211638D01*
X179015357Y-190211638D02*
X179265357Y-188211638D01*
X180253452Y-190211638D02*
X180420119Y-188878304D01*
X180503452Y-188211638D02*
X180396309Y-188306876D01*
X180396309Y-188306876D02*
X180479643Y-188402114D01*
X180479643Y-188402114D02*
X180586786Y-188306876D01*
X180586786Y-188306876D02*
X180503452Y-188211638D01*
X180503452Y-188211638D02*
X180479643Y-188402114D01*
X181086786Y-188878304D02*
X181848690Y-188878304D01*
X181455833Y-188211638D02*
X181241548Y-189925923D01*
X181241548Y-189925923D02*
X181312976Y-190116400D01*
X181312976Y-190116400D02*
X181491548Y-190211638D01*
X181491548Y-190211638D02*
X181682024Y-190211638D01*
X182634405Y-190211638D02*
X182455833Y-190116400D01*
X182455833Y-190116400D02*
X182384405Y-189925923D01*
X182384405Y-189925923D02*
X182598690Y-188211638D01*
X184170119Y-190116400D02*
X183967738Y-190211638D01*
X183967738Y-190211638D02*
X183586785Y-190211638D01*
X183586785Y-190211638D02*
X183408214Y-190116400D01*
X183408214Y-190116400D02*
X183336785Y-189925923D01*
X183336785Y-189925923D02*
X183432024Y-189164019D01*
X183432024Y-189164019D02*
X183551071Y-188973542D01*
X183551071Y-188973542D02*
X183753452Y-188878304D01*
X183753452Y-188878304D02*
X184134404Y-188878304D01*
X184134404Y-188878304D02*
X184312976Y-188973542D01*
X184312976Y-188973542D02*
X184384404Y-189164019D01*
X184384404Y-189164019D02*
X184360595Y-189354495D01*
X184360595Y-189354495D02*
X183384404Y-189544971D01*
X185134405Y-190021161D02*
X185217738Y-190116400D01*
X185217738Y-190116400D02*
X185110595Y-190211638D01*
X185110595Y-190211638D02*
X185027262Y-190116400D01*
X185027262Y-190116400D02*
X185134405Y-190021161D01*
X185134405Y-190021161D02*
X185110595Y-190211638D01*
X185265357Y-188973542D02*
X185348690Y-189068780D01*
X185348690Y-189068780D02*
X185241548Y-189164019D01*
X185241548Y-189164019D02*
X185158214Y-189068780D01*
X185158214Y-189068780D02*
X185265357Y-188973542D01*
X185265357Y-188973542D02*
X185241548Y-189164019D01*
X188384405Y-189164019D02*
X188658215Y-189259257D01*
X188658215Y-189259257D02*
X188741548Y-189354495D01*
X188741548Y-189354495D02*
X188812977Y-189544971D01*
X188812977Y-189544971D02*
X188777262Y-189830685D01*
X188777262Y-189830685D02*
X188658215Y-190021161D01*
X188658215Y-190021161D02*
X188551072Y-190116400D01*
X188551072Y-190116400D02*
X188348691Y-190211638D01*
X188348691Y-190211638D02*
X187586786Y-190211638D01*
X187586786Y-190211638D02*
X187836786Y-188211638D01*
X187836786Y-188211638D02*
X188503453Y-188211638D01*
X188503453Y-188211638D02*
X188682024Y-188306876D01*
X188682024Y-188306876D02*
X188765358Y-188402114D01*
X188765358Y-188402114D02*
X188836786Y-188592590D01*
X188836786Y-188592590D02*
X188812977Y-188783066D01*
X188812977Y-188783066D02*
X188693929Y-188973542D01*
X188693929Y-188973542D02*
X188586786Y-189068780D01*
X188586786Y-189068780D02*
X188384405Y-189164019D01*
X188384405Y-189164019D02*
X187717739Y-189164019D01*
X189586786Y-190211638D02*
X189753453Y-188878304D01*
X189705834Y-189259257D02*
X189824881Y-189068780D01*
X189824881Y-189068780D02*
X189932024Y-188973542D01*
X189932024Y-188973542D02*
X190134405Y-188878304D01*
X190134405Y-188878304D02*
X190324881Y-188878304D01*
X191598691Y-190116400D02*
X191396310Y-190211638D01*
X191396310Y-190211638D02*
X191015357Y-190211638D01*
X191015357Y-190211638D02*
X190836786Y-190116400D01*
X190836786Y-190116400D02*
X190765357Y-189925923D01*
X190765357Y-189925923D02*
X190860596Y-189164019D01*
X190860596Y-189164019D02*
X190979643Y-188973542D01*
X190979643Y-188973542D02*
X191182024Y-188878304D01*
X191182024Y-188878304D02*
X191562976Y-188878304D01*
X191562976Y-188878304D02*
X191741548Y-188973542D01*
X191741548Y-188973542D02*
X191812976Y-189164019D01*
X191812976Y-189164019D02*
X191789167Y-189354495D01*
X191789167Y-189354495D02*
X190812976Y-189544971D01*
X193396310Y-190211638D02*
X193527262Y-189164019D01*
X193527262Y-189164019D02*
X193455834Y-188973542D01*
X193455834Y-188973542D02*
X193277262Y-188878304D01*
X193277262Y-188878304D02*
X192896310Y-188878304D01*
X192896310Y-188878304D02*
X192693929Y-188973542D01*
X193408215Y-190116400D02*
X193205834Y-190211638D01*
X193205834Y-190211638D02*
X192729643Y-190211638D01*
X192729643Y-190211638D02*
X192551072Y-190116400D01*
X192551072Y-190116400D02*
X192479643Y-189925923D01*
X192479643Y-189925923D02*
X192503453Y-189735447D01*
X192503453Y-189735447D02*
X192622501Y-189544971D01*
X192622501Y-189544971D02*
X192824882Y-189449733D01*
X192824882Y-189449733D02*
X193301072Y-189449733D01*
X193301072Y-189449733D02*
X193503453Y-189354495D01*
X195205834Y-190211638D02*
X195455834Y-188211638D01*
X195217739Y-190116400D02*
X195015358Y-190211638D01*
X195015358Y-190211638D02*
X194634406Y-190211638D01*
X194634406Y-190211638D02*
X194455834Y-190116400D01*
X194455834Y-190116400D02*
X194372501Y-190021161D01*
X194372501Y-190021161D02*
X194301072Y-189830685D01*
X194301072Y-189830685D02*
X194372501Y-189259257D01*
X194372501Y-189259257D02*
X194491548Y-189068780D01*
X194491548Y-189068780D02*
X194598691Y-188973542D01*
X194598691Y-188973542D02*
X194801072Y-188878304D01*
X194801072Y-188878304D02*
X195182025Y-188878304D01*
X195182025Y-188878304D02*
X195360596Y-188973542D01*
X198479644Y-189164019D02*
X198753454Y-189259257D01*
X198753454Y-189259257D02*
X198836787Y-189354495D01*
X198836787Y-189354495D02*
X198908216Y-189544971D01*
X198908216Y-189544971D02*
X198872501Y-189830685D01*
X198872501Y-189830685D02*
X198753454Y-190021161D01*
X198753454Y-190021161D02*
X198646311Y-190116400D01*
X198646311Y-190116400D02*
X198443930Y-190211638D01*
X198443930Y-190211638D02*
X197682025Y-190211638D01*
X197682025Y-190211638D02*
X197932025Y-188211638D01*
X197932025Y-188211638D02*
X198598692Y-188211638D01*
X198598692Y-188211638D02*
X198777263Y-188306876D01*
X198777263Y-188306876D02*
X198860597Y-188402114D01*
X198860597Y-188402114D02*
X198932025Y-188592590D01*
X198932025Y-188592590D02*
X198908216Y-188783066D01*
X198908216Y-188783066D02*
X198789168Y-188973542D01*
X198789168Y-188973542D02*
X198682025Y-189068780D01*
X198682025Y-189068780D02*
X198479644Y-189164019D01*
X198479644Y-189164019D02*
X197812978Y-189164019D01*
X199967740Y-190211638D02*
X199789168Y-190116400D01*
X199789168Y-190116400D02*
X199705835Y-190021161D01*
X199705835Y-190021161D02*
X199634406Y-189830685D01*
X199634406Y-189830685D02*
X199705835Y-189259257D01*
X199705835Y-189259257D02*
X199824882Y-189068780D01*
X199824882Y-189068780D02*
X199932025Y-188973542D01*
X199932025Y-188973542D02*
X200134406Y-188878304D01*
X200134406Y-188878304D02*
X200420120Y-188878304D01*
X200420120Y-188878304D02*
X200598692Y-188973542D01*
X200598692Y-188973542D02*
X200682025Y-189068780D01*
X200682025Y-189068780D02*
X200753454Y-189259257D01*
X200753454Y-189259257D02*
X200682025Y-189830685D01*
X200682025Y-189830685D02*
X200562978Y-190021161D01*
X200562978Y-190021161D02*
X200455835Y-190116400D01*
X200455835Y-190116400D02*
X200253454Y-190211638D01*
X200253454Y-190211638D02*
X199967740Y-190211638D01*
X202348692Y-190211638D02*
X202479644Y-189164019D01*
X202479644Y-189164019D02*
X202408216Y-188973542D01*
X202408216Y-188973542D02*
X202229644Y-188878304D01*
X202229644Y-188878304D02*
X201848692Y-188878304D01*
X201848692Y-188878304D02*
X201646311Y-188973542D01*
X202360597Y-190116400D02*
X202158216Y-190211638D01*
X202158216Y-190211638D02*
X201682025Y-190211638D01*
X201682025Y-190211638D02*
X201503454Y-190116400D01*
X201503454Y-190116400D02*
X201432025Y-189925923D01*
X201432025Y-189925923D02*
X201455835Y-189735447D01*
X201455835Y-189735447D02*
X201574883Y-189544971D01*
X201574883Y-189544971D02*
X201777264Y-189449733D01*
X201777264Y-189449733D02*
X202253454Y-189449733D01*
X202253454Y-189449733D02*
X202455835Y-189354495D01*
X203301073Y-190211638D02*
X203467740Y-188878304D01*
X203420121Y-189259257D02*
X203539168Y-189068780D01*
X203539168Y-189068780D02*
X203646311Y-188973542D01*
X203646311Y-188973542D02*
X203848692Y-188878304D01*
X203848692Y-188878304D02*
X204039168Y-188878304D01*
X205396311Y-190211638D02*
X205646311Y-188211638D01*
X205408216Y-190116400D02*
X205205835Y-190211638D01*
X205205835Y-190211638D02*
X204824883Y-190211638D01*
X204824883Y-190211638D02*
X204646311Y-190116400D01*
X204646311Y-190116400D02*
X204562978Y-190021161D01*
X204562978Y-190021161D02*
X204491549Y-189830685D01*
X204491549Y-189830685D02*
X204562978Y-189259257D01*
X204562978Y-189259257D02*
X204682025Y-189068780D01*
X204682025Y-189068780D02*
X204789168Y-188973542D01*
X204789168Y-188973542D02*
X204991549Y-188878304D01*
X204991549Y-188878304D02*
X205372502Y-188878304D01*
X205372502Y-188878304D02*
X205551073Y-188973542D01*
X207789169Y-190116400D02*
X208062978Y-190211638D01*
X208062978Y-190211638D02*
X208539169Y-190211638D01*
X208539169Y-190211638D02*
X208741550Y-190116400D01*
X208741550Y-190116400D02*
X208848693Y-190021161D01*
X208848693Y-190021161D02*
X208967740Y-189830685D01*
X208967740Y-189830685D02*
X208991550Y-189640209D01*
X208991550Y-189640209D02*
X208920121Y-189449733D01*
X208920121Y-189449733D02*
X208836788Y-189354495D01*
X208836788Y-189354495D02*
X208658217Y-189259257D01*
X208658217Y-189259257D02*
X208289169Y-189164019D01*
X208289169Y-189164019D02*
X208110597Y-189068780D01*
X208110597Y-189068780D02*
X208027264Y-188973542D01*
X208027264Y-188973542D02*
X207955836Y-188783066D01*
X207955836Y-188783066D02*
X207979645Y-188592590D01*
X207979645Y-188592590D02*
X208098693Y-188402114D01*
X208098693Y-188402114D02*
X208205836Y-188306876D01*
X208205836Y-188306876D02*
X208408217Y-188211638D01*
X208408217Y-188211638D02*
X208884407Y-188211638D01*
X208884407Y-188211638D02*
X209158217Y-188306876D01*
X210801074Y-188878304D02*
X210634407Y-190211638D01*
X209943931Y-188878304D02*
X209812979Y-189925923D01*
X209812979Y-189925923D02*
X209884407Y-190116400D01*
X209884407Y-190116400D02*
X210062979Y-190211638D01*
X210062979Y-190211638D02*
X210348693Y-190211638D01*
X210348693Y-190211638D02*
X210551074Y-190116400D01*
X210551074Y-190116400D02*
X210658217Y-190021161D01*
X211753455Y-188878304D02*
X211503455Y-190878304D01*
X211741550Y-188973542D02*
X211943931Y-188878304D01*
X211943931Y-188878304D02*
X212324883Y-188878304D01*
X212324883Y-188878304D02*
X212503455Y-188973542D01*
X212503455Y-188973542D02*
X212586788Y-189068780D01*
X212586788Y-189068780D02*
X212658217Y-189259257D01*
X212658217Y-189259257D02*
X212586788Y-189830685D01*
X212586788Y-189830685D02*
X212467741Y-190021161D01*
X212467741Y-190021161D02*
X212360598Y-190116400D01*
X212360598Y-190116400D02*
X212158217Y-190211638D01*
X212158217Y-190211638D02*
X211777264Y-190211638D01*
X211777264Y-190211638D02*
X211598693Y-190116400D01*
X213562979Y-188878304D02*
X213312979Y-190878304D01*
X213551074Y-188973542D02*
X213753455Y-188878304D01*
X213753455Y-188878304D02*
X214134407Y-188878304D01*
X214134407Y-188878304D02*
X214312979Y-188973542D01*
X214312979Y-188973542D02*
X214396312Y-189068780D01*
X214396312Y-189068780D02*
X214467741Y-189259257D01*
X214467741Y-189259257D02*
X214396312Y-189830685D01*
X214396312Y-189830685D02*
X214277265Y-190021161D01*
X214277265Y-190021161D02*
X214170122Y-190116400D01*
X214170122Y-190116400D02*
X213967741Y-190211638D01*
X213967741Y-190211638D02*
X213586788Y-190211638D01*
X213586788Y-190211638D02*
X213408217Y-190116400D01*
X215491551Y-190211638D02*
X215312979Y-190116400D01*
X215312979Y-190116400D02*
X215241551Y-189925923D01*
X215241551Y-189925923D02*
X215455836Y-188211638D01*
X216229646Y-188878304D02*
X216539170Y-190211638D01*
X217182027Y-188878304D02*
X216539170Y-190211638D01*
X216539170Y-190211638D02*
X216289170Y-190687828D01*
X216289170Y-190687828D02*
X216182027Y-190783066D01*
X216182027Y-190783066D02*
X215979646Y-190878304D01*
X219277266Y-188878304D02*
X219586790Y-190211638D01*
X219586790Y-190211638D02*
X220229647Y-188878304D01*
X221455838Y-188211638D02*
X221646314Y-188211638D01*
X221646314Y-188211638D02*
X221824885Y-188306876D01*
X221824885Y-188306876D02*
X221908219Y-188402114D01*
X221908219Y-188402114D02*
X221979647Y-188592590D01*
X221979647Y-188592590D02*
X222027266Y-188973542D01*
X222027266Y-188973542D02*
X221967742Y-189449733D01*
X221967742Y-189449733D02*
X221824885Y-189830685D01*
X221824885Y-189830685D02*
X221705838Y-190021161D01*
X221705838Y-190021161D02*
X221598695Y-190116400D01*
X221598695Y-190116400D02*
X221396314Y-190211638D01*
X221396314Y-190211638D02*
X221205838Y-190211638D01*
X221205838Y-190211638D02*
X221027266Y-190116400D01*
X221027266Y-190116400D02*
X220943933Y-190021161D01*
X220943933Y-190021161D02*
X220872504Y-189830685D01*
X220872504Y-189830685D02*
X220824885Y-189449733D01*
X220824885Y-189449733D02*
X220884409Y-188973542D01*
X220884409Y-188973542D02*
X221027266Y-188592590D01*
X221027266Y-188592590D02*
X221146314Y-188402114D01*
X221146314Y-188402114D02*
X221253457Y-188306876D01*
X221253457Y-188306876D02*
X221455838Y-188211638D01*
X223360600Y-188211638D02*
X223551076Y-188211638D01*
X223551076Y-188211638D02*
X223729647Y-188306876D01*
X223729647Y-188306876D02*
X223812981Y-188402114D01*
X223812981Y-188402114D02*
X223884409Y-188592590D01*
X223884409Y-188592590D02*
X223932028Y-188973542D01*
X223932028Y-188973542D02*
X223872504Y-189449733D01*
X223872504Y-189449733D02*
X223729647Y-189830685D01*
X223729647Y-189830685D02*
X223610600Y-190021161D01*
X223610600Y-190021161D02*
X223503457Y-190116400D01*
X223503457Y-190116400D02*
X223301076Y-190211638D01*
X223301076Y-190211638D02*
X223110600Y-190211638D01*
X223110600Y-190211638D02*
X222932028Y-190116400D01*
X222932028Y-190116400D02*
X222848695Y-190021161D01*
X222848695Y-190021161D02*
X222777266Y-189830685D01*
X222777266Y-189830685D02*
X222729647Y-189449733D01*
X222729647Y-189449733D02*
X222789171Y-188973542D01*
X222789171Y-188973542D02*
X222932028Y-188592590D01*
X222932028Y-188592590D02*
X223051076Y-188402114D01*
X223051076Y-188402114D02*
X223158219Y-188306876D01*
X223158219Y-188306876D02*
X223360600Y-188211638D01*
X225682028Y-190211638D02*
X224539171Y-190211638D01*
X225110600Y-190211638D02*
X225360600Y-188211638D01*
X225360600Y-188211638D02*
X225134409Y-188497352D01*
X225134409Y-188497352D02*
X224920124Y-188687828D01*
X224920124Y-188687828D02*
X224717743Y-188783066D01*
D10*
D11*
X178958026Y-185607614D02*
X178458026Y-185607614D01*
X178458026Y-186393328D02*
X178458026Y-184893328D01*
X178458026Y-184893328D02*
X179172312Y-184893328D01*
X179743740Y-186393328D02*
X179743740Y-185393328D01*
X179743740Y-184893328D02*
X179672312Y-184964757D01*
X179672312Y-184964757D02*
X179743740Y-185036185D01*
X179743740Y-185036185D02*
X179815169Y-184964757D01*
X179815169Y-184964757D02*
X179743740Y-184893328D01*
X179743740Y-184893328D02*
X179743740Y-185036185D01*
X180672312Y-186393328D02*
X180529455Y-186321900D01*
X180529455Y-186321900D02*
X180458026Y-186179042D01*
X180458026Y-186179042D02*
X180458026Y-184893328D01*
X181815169Y-186321900D02*
X181672312Y-186393328D01*
X181672312Y-186393328D02*
X181386598Y-186393328D01*
X181386598Y-186393328D02*
X181243740Y-186321900D01*
X181243740Y-186321900D02*
X181172312Y-186179042D01*
X181172312Y-186179042D02*
X181172312Y-185607614D01*
X181172312Y-185607614D02*
X181243740Y-185464757D01*
X181243740Y-185464757D02*
X181386598Y-185393328D01*
X181386598Y-185393328D02*
X181672312Y-185393328D01*
X181672312Y-185393328D02*
X181815169Y-185464757D01*
X181815169Y-185464757D02*
X181886598Y-185607614D01*
X181886598Y-185607614D02*
X181886598Y-185750471D01*
X181886598Y-185750471D02*
X181172312Y-185893328D01*
X182529454Y-186250471D02*
X182600883Y-186321900D01*
X182600883Y-186321900D02*
X182529454Y-186393328D01*
X182529454Y-186393328D02*
X182458026Y-186321900D01*
X182458026Y-186321900D02*
X182529454Y-186250471D01*
X182529454Y-186250471D02*
X182529454Y-186393328D01*
X182529454Y-185464757D02*
X182600883Y-185536185D01*
X182600883Y-185536185D02*
X182529454Y-185607614D01*
X182529454Y-185607614D02*
X182458026Y-185536185D01*
X182458026Y-185536185D02*
X182529454Y-185464757D01*
X182529454Y-185464757D02*
X182529454Y-185607614D01*
X184886597Y-185607614D02*
X185100883Y-185679042D01*
X185100883Y-185679042D02*
X185172312Y-185750471D01*
X185172312Y-185750471D02*
X185243740Y-185893328D01*
X185243740Y-185893328D02*
X185243740Y-186107614D01*
X185243740Y-186107614D02*
X185172312Y-186250471D01*
X185172312Y-186250471D02*
X185100883Y-186321900D01*
X185100883Y-186321900D02*
X184958026Y-186393328D01*
X184958026Y-186393328D02*
X184386597Y-186393328D01*
X184386597Y-186393328D02*
X184386597Y-184893328D01*
X184386597Y-184893328D02*
X184886597Y-184893328D01*
X184886597Y-184893328D02*
X185029455Y-184964757D01*
X185029455Y-184964757D02*
X185100883Y-185036185D01*
X185100883Y-185036185D02*
X185172312Y-185179042D01*
X185172312Y-185179042D02*
X185172312Y-185321900D01*
X185172312Y-185321900D02*
X185100883Y-185464757D01*
X185100883Y-185464757D02*
X185029455Y-185536185D01*
X185029455Y-185536185D02*
X184886597Y-185607614D01*
X184886597Y-185607614D02*
X184386597Y-185607614D01*
X185886597Y-186393328D02*
X185886597Y-185393328D01*
X185886597Y-185679042D02*
X185958026Y-185536185D01*
X185958026Y-185536185D02*
X186029455Y-185464757D01*
X186029455Y-185464757D02*
X186172312Y-185393328D01*
X186172312Y-185393328D02*
X186315169Y-185393328D01*
X187386597Y-186321900D02*
X187243740Y-186393328D01*
X187243740Y-186393328D02*
X186958026Y-186393328D01*
X186958026Y-186393328D02*
X186815168Y-186321900D01*
X186815168Y-186321900D02*
X186743740Y-186179042D01*
X186743740Y-186179042D02*
X186743740Y-185607614D01*
X186743740Y-185607614D02*
X186815168Y-185464757D01*
X186815168Y-185464757D02*
X186958026Y-185393328D01*
X186958026Y-185393328D02*
X187243740Y-185393328D01*
X187243740Y-185393328D02*
X187386597Y-185464757D01*
X187386597Y-185464757D02*
X187458026Y-185607614D01*
X187458026Y-185607614D02*
X187458026Y-185750471D01*
X187458026Y-185750471D02*
X186743740Y-185893328D01*
X188743740Y-186393328D02*
X188743740Y-185607614D01*
X188743740Y-185607614D02*
X188672311Y-185464757D01*
X188672311Y-185464757D02*
X188529454Y-185393328D01*
X188529454Y-185393328D02*
X188243740Y-185393328D01*
X188243740Y-185393328D02*
X188100882Y-185464757D01*
X188743740Y-186321900D02*
X188600882Y-186393328D01*
X188600882Y-186393328D02*
X188243740Y-186393328D01*
X188243740Y-186393328D02*
X188100882Y-186321900D01*
X188100882Y-186321900D02*
X188029454Y-186179042D01*
X188029454Y-186179042D02*
X188029454Y-186036185D01*
X188029454Y-186036185D02*
X188100882Y-185893328D01*
X188100882Y-185893328D02*
X188243740Y-185821900D01*
X188243740Y-185821900D02*
X188600882Y-185821900D01*
X188600882Y-185821900D02*
X188743740Y-185750471D01*
X190100883Y-186393328D02*
X190100883Y-184893328D01*
X190100883Y-186321900D02*
X189958025Y-186393328D01*
X189958025Y-186393328D02*
X189672311Y-186393328D01*
X189672311Y-186393328D02*
X189529454Y-186321900D01*
X189529454Y-186321900D02*
X189458025Y-186250471D01*
X189458025Y-186250471D02*
X189386597Y-186107614D01*
X189386597Y-186107614D02*
X189386597Y-185679042D01*
X189386597Y-185679042D02*
X189458025Y-185536185D01*
X189458025Y-185536185D02*
X189529454Y-185464757D01*
X189529454Y-185464757D02*
X189672311Y-185393328D01*
X189672311Y-185393328D02*
X189958025Y-185393328D01*
X189958025Y-185393328D02*
X190100883Y-185464757D01*
X190458026Y-186536185D02*
X191600883Y-186536185D01*
X192458025Y-185607614D02*
X192672311Y-185679042D01*
X192672311Y-185679042D02*
X192743740Y-185750471D01*
X192743740Y-185750471D02*
X192815168Y-185893328D01*
X192815168Y-185893328D02*
X192815168Y-186107614D01*
X192815168Y-186107614D02*
X192743740Y-186250471D01*
X192743740Y-186250471D02*
X192672311Y-186321900D01*
X192672311Y-186321900D02*
X192529454Y-186393328D01*
X192529454Y-186393328D02*
X191958025Y-186393328D01*
X191958025Y-186393328D02*
X191958025Y-184893328D01*
X191958025Y-184893328D02*
X192458025Y-184893328D01*
X192458025Y-184893328D02*
X192600883Y-184964757D01*
X192600883Y-184964757D02*
X192672311Y-185036185D01*
X192672311Y-185036185D02*
X192743740Y-185179042D01*
X192743740Y-185179042D02*
X192743740Y-185321900D01*
X192743740Y-185321900D02*
X192672311Y-185464757D01*
X192672311Y-185464757D02*
X192600883Y-185536185D01*
X192600883Y-185536185D02*
X192458025Y-185607614D01*
X192458025Y-185607614D02*
X191958025Y-185607614D01*
X193672311Y-186393328D02*
X193529454Y-186321900D01*
X193529454Y-186321900D02*
X193458025Y-186250471D01*
X193458025Y-186250471D02*
X193386597Y-186107614D01*
X193386597Y-186107614D02*
X193386597Y-185679042D01*
X193386597Y-185679042D02*
X193458025Y-185536185D01*
X193458025Y-185536185D02*
X193529454Y-185464757D01*
X193529454Y-185464757D02*
X193672311Y-185393328D01*
X193672311Y-185393328D02*
X193886597Y-185393328D01*
X193886597Y-185393328D02*
X194029454Y-185464757D01*
X194029454Y-185464757D02*
X194100883Y-185536185D01*
X194100883Y-185536185D02*
X194172311Y-185679042D01*
X194172311Y-185679042D02*
X194172311Y-186107614D01*
X194172311Y-186107614D02*
X194100883Y-186250471D01*
X194100883Y-186250471D02*
X194029454Y-186321900D01*
X194029454Y-186321900D02*
X193886597Y-186393328D01*
X193886597Y-186393328D02*
X193672311Y-186393328D01*
X195458026Y-186393328D02*
X195458026Y-185607614D01*
X195458026Y-185607614D02*
X195386597Y-185464757D01*
X195386597Y-185464757D02*
X195243740Y-185393328D01*
X195243740Y-185393328D02*
X194958026Y-185393328D01*
X194958026Y-185393328D02*
X194815168Y-185464757D01*
X195458026Y-186321900D02*
X195315168Y-186393328D01*
X195315168Y-186393328D02*
X194958026Y-186393328D01*
X194958026Y-186393328D02*
X194815168Y-186321900D01*
X194815168Y-186321900D02*
X194743740Y-186179042D01*
X194743740Y-186179042D02*
X194743740Y-186036185D01*
X194743740Y-186036185D02*
X194815168Y-185893328D01*
X194815168Y-185893328D02*
X194958026Y-185821900D01*
X194958026Y-185821900D02*
X195315168Y-185821900D01*
X195315168Y-185821900D02*
X195458026Y-185750471D01*
X196172311Y-186393328D02*
X196172311Y-185393328D01*
X196172311Y-185679042D02*
X196243740Y-185536185D01*
X196243740Y-185536185D02*
X196315169Y-185464757D01*
X196315169Y-185464757D02*
X196458026Y-185393328D01*
X196458026Y-185393328D02*
X196600883Y-185393328D01*
X197743740Y-186393328D02*
X197743740Y-184893328D01*
X197743740Y-186321900D02*
X197600882Y-186393328D01*
X197600882Y-186393328D02*
X197315168Y-186393328D01*
X197315168Y-186393328D02*
X197172311Y-186321900D01*
X197172311Y-186321900D02*
X197100882Y-186250471D01*
X197100882Y-186250471D02*
X197029454Y-186107614D01*
X197029454Y-186107614D02*
X197029454Y-185679042D01*
X197029454Y-185679042D02*
X197100882Y-185536185D01*
X197100882Y-185536185D02*
X197172311Y-185464757D01*
X197172311Y-185464757D02*
X197315168Y-185393328D01*
X197315168Y-185393328D02*
X197600882Y-185393328D01*
X197600882Y-185393328D02*
X197743740Y-185464757D01*
X198100883Y-186536185D02*
X199243740Y-186536185D01*
X199600882Y-186393328D02*
X199600882Y-184893328D01*
X199600882Y-184893328D02*
X200172311Y-184893328D01*
X200172311Y-184893328D02*
X200315168Y-184964757D01*
X200315168Y-184964757D02*
X200386597Y-185036185D01*
X200386597Y-185036185D02*
X200458025Y-185179042D01*
X200458025Y-185179042D02*
X200458025Y-185393328D01*
X200458025Y-185393328D02*
X200386597Y-185536185D01*
X200386597Y-185536185D02*
X200315168Y-185607614D01*
X200315168Y-185607614D02*
X200172311Y-185679042D01*
X200172311Y-185679042D02*
X199600882Y-185679042D01*
X201315168Y-186393328D02*
X201172311Y-186321900D01*
X201172311Y-186321900D02*
X201100882Y-186250471D01*
X201100882Y-186250471D02*
X201029454Y-186107614D01*
X201029454Y-186107614D02*
X201029454Y-185679042D01*
X201029454Y-185679042D02*
X201100882Y-185536185D01*
X201100882Y-185536185D02*
X201172311Y-185464757D01*
X201172311Y-185464757D02*
X201315168Y-185393328D01*
X201315168Y-185393328D02*
X201529454Y-185393328D01*
X201529454Y-185393328D02*
X201672311Y-185464757D01*
X201672311Y-185464757D02*
X201743740Y-185536185D01*
X201743740Y-185536185D02*
X201815168Y-185679042D01*
X201815168Y-185679042D02*
X201815168Y-186107614D01*
X201815168Y-186107614D02*
X201743740Y-186250471D01*
X201743740Y-186250471D02*
X201672311Y-186321900D01*
X201672311Y-186321900D02*
X201529454Y-186393328D01*
X201529454Y-186393328D02*
X201315168Y-186393328D01*
X202315168Y-185393328D02*
X202600883Y-186393328D01*
X202600883Y-186393328D02*
X202886597Y-185679042D01*
X202886597Y-185679042D02*
X203172311Y-186393328D01*
X203172311Y-186393328D02*
X203458025Y-185393328D01*
X204600883Y-186321900D02*
X204458026Y-186393328D01*
X204458026Y-186393328D02*
X204172312Y-186393328D01*
X204172312Y-186393328D02*
X204029454Y-186321900D01*
X204029454Y-186321900D02*
X203958026Y-186179042D01*
X203958026Y-186179042D02*
X203958026Y-185607614D01*
X203958026Y-185607614D02*
X204029454Y-185464757D01*
X204029454Y-185464757D02*
X204172312Y-185393328D01*
X204172312Y-185393328D02*
X204458026Y-185393328D01*
X204458026Y-185393328D02*
X204600883Y-185464757D01*
X204600883Y-185464757D02*
X204672312Y-185607614D01*
X204672312Y-185607614D02*
X204672312Y-185750471D01*
X204672312Y-185750471D02*
X203958026Y-185893328D01*
X205315168Y-186393328D02*
X205315168Y-185393328D01*
X205315168Y-185679042D02*
X205386597Y-185536185D01*
X205386597Y-185536185D02*
X205458026Y-185464757D01*
X205458026Y-185464757D02*
X205600883Y-185393328D01*
X205600883Y-185393328D02*
X205743740Y-185393328D01*
X205886597Y-186536185D02*
X207029454Y-186536185D01*
X207315168Y-186321900D02*
X207529454Y-186393328D01*
X207529454Y-186393328D02*
X207886596Y-186393328D01*
X207886596Y-186393328D02*
X208029454Y-186321900D01*
X208029454Y-186321900D02*
X208100882Y-186250471D01*
X208100882Y-186250471D02*
X208172311Y-186107614D01*
X208172311Y-186107614D02*
X208172311Y-185964757D01*
X208172311Y-185964757D02*
X208100882Y-185821900D01*
X208100882Y-185821900D02*
X208029454Y-185750471D01*
X208029454Y-185750471D02*
X207886596Y-185679042D01*
X207886596Y-185679042D02*
X207600882Y-185607614D01*
X207600882Y-185607614D02*
X207458025Y-185536185D01*
X207458025Y-185536185D02*
X207386596Y-185464757D01*
X207386596Y-185464757D02*
X207315168Y-185321900D01*
X207315168Y-185321900D02*
X207315168Y-185179042D01*
X207315168Y-185179042D02*
X207386596Y-185036185D01*
X207386596Y-185036185D02*
X207458025Y-184964757D01*
X207458025Y-184964757D02*
X207600882Y-184893328D01*
X207600882Y-184893328D02*
X207958025Y-184893328D01*
X207958025Y-184893328D02*
X208172311Y-184964757D01*
X209458025Y-185393328D02*
X209458025Y-186393328D01*
X208815167Y-185393328D02*
X208815167Y-186179042D01*
X208815167Y-186179042D02*
X208886596Y-186321900D01*
X208886596Y-186321900D02*
X209029453Y-186393328D01*
X209029453Y-186393328D02*
X209243739Y-186393328D01*
X209243739Y-186393328D02*
X209386596Y-186321900D01*
X209386596Y-186321900D02*
X209458025Y-186250471D01*
X210172310Y-185393328D02*
X210172310Y-186893328D01*
X210172310Y-185464757D02*
X210315168Y-185393328D01*
X210315168Y-185393328D02*
X210600882Y-185393328D01*
X210600882Y-185393328D02*
X210743739Y-185464757D01*
X210743739Y-185464757D02*
X210815168Y-185536185D01*
X210815168Y-185536185D02*
X210886596Y-185679042D01*
X210886596Y-185679042D02*
X210886596Y-186107614D01*
X210886596Y-186107614D02*
X210815168Y-186250471D01*
X210815168Y-186250471D02*
X210743739Y-186321900D01*
X210743739Y-186321900D02*
X210600882Y-186393328D01*
X210600882Y-186393328D02*
X210315168Y-186393328D01*
X210315168Y-186393328D02*
X210172310Y-186321900D01*
X211529453Y-185393328D02*
X211529453Y-186893328D01*
X211529453Y-185464757D02*
X211672311Y-185393328D01*
X211672311Y-185393328D02*
X211958025Y-185393328D01*
X211958025Y-185393328D02*
X212100882Y-185464757D01*
X212100882Y-185464757D02*
X212172311Y-185536185D01*
X212172311Y-185536185D02*
X212243739Y-185679042D01*
X212243739Y-185679042D02*
X212243739Y-186107614D01*
X212243739Y-186107614D02*
X212172311Y-186250471D01*
X212172311Y-186250471D02*
X212100882Y-186321900D01*
X212100882Y-186321900D02*
X211958025Y-186393328D01*
X211958025Y-186393328D02*
X211672311Y-186393328D01*
X211672311Y-186393328D02*
X211529453Y-186321900D01*
X213100882Y-186393328D02*
X212958025Y-186321900D01*
X212958025Y-186321900D02*
X212886596Y-186179042D01*
X212886596Y-186179042D02*
X212886596Y-184893328D01*
X213529453Y-185393328D02*
X213886596Y-186393328D01*
X214243739Y-185393328D02*
X213886596Y-186393328D01*
X213886596Y-186393328D02*
X213743739Y-186750471D01*
X213743739Y-186750471D02*
X213672310Y-186821900D01*
X213672310Y-186821900D02*
X213529453Y-186893328D01*
X215100882Y-184893328D02*
X215243739Y-184893328D01*
X215243739Y-184893328D02*
X215386596Y-184964757D01*
X215386596Y-184964757D02*
X215458025Y-185036185D01*
X215458025Y-185036185D02*
X215529453Y-185179042D01*
X215529453Y-185179042D02*
X215600882Y-185464757D01*
X215600882Y-185464757D02*
X215600882Y-185821900D01*
X215600882Y-185821900D02*
X215529453Y-186107614D01*
X215529453Y-186107614D02*
X215458025Y-186250471D01*
X215458025Y-186250471D02*
X215386596Y-186321900D01*
X215386596Y-186321900D02*
X215243739Y-186393328D01*
X215243739Y-186393328D02*
X215100882Y-186393328D01*
X215100882Y-186393328D02*
X214958025Y-186321900D01*
X214958025Y-186321900D02*
X214886596Y-186250471D01*
X214886596Y-186250471D02*
X214815167Y-186107614D01*
X214815167Y-186107614D02*
X214743739Y-185821900D01*
X214743739Y-185821900D02*
X214743739Y-185464757D01*
X214743739Y-185464757D02*
X214815167Y-185179042D01*
X214815167Y-185179042D02*
X214886596Y-185036185D01*
X214886596Y-185036185D02*
X214958025Y-184964757D01*
X214958025Y-184964757D02*
X215100882Y-184893328D01*
X216529453Y-184893328D02*
X216672310Y-184893328D01*
X216672310Y-184893328D02*
X216815167Y-184964757D01*
X216815167Y-184964757D02*
X216886596Y-185036185D01*
X216886596Y-185036185D02*
X216958024Y-185179042D01*
X216958024Y-185179042D02*
X217029453Y-185464757D01*
X217029453Y-185464757D02*
X217029453Y-185821900D01*
X217029453Y-185821900D02*
X216958024Y-186107614D01*
X216958024Y-186107614D02*
X216886596Y-186250471D01*
X216886596Y-186250471D02*
X216815167Y-186321900D01*
X216815167Y-186321900D02*
X216672310Y-186393328D01*
X216672310Y-186393328D02*
X216529453Y-186393328D01*
X216529453Y-186393328D02*
X216386596Y-186321900D01*
X216386596Y-186321900D02*
X216315167Y-186250471D01*
X216315167Y-186250471D02*
X216243738Y-186107614D01*
X216243738Y-186107614D02*
X216172310Y-185821900D01*
X216172310Y-185821900D02*
X216172310Y-185464757D01*
X216172310Y-185464757D02*
X216243738Y-185179042D01*
X216243738Y-185179042D02*
X216315167Y-185036185D01*
X216315167Y-185036185D02*
X216386596Y-184964757D01*
X216386596Y-184964757D02*
X216529453Y-184893328D01*
X218458024Y-186393328D02*
X217600881Y-186393328D01*
X218029452Y-186393328D02*
X218029452Y-184893328D01*
X218029452Y-184893328D02*
X217886595Y-185107614D01*
X217886595Y-185107614D02*
X217743738Y-185250471D01*
X217743738Y-185250471D02*
X217600881Y-185321900D01*
X219100880Y-186250471D02*
X219172309Y-186321900D01*
X219172309Y-186321900D02*
X219100880Y-186393328D01*
X219100880Y-186393328D02*
X219029452Y-186321900D01*
X219029452Y-186321900D02*
X219100880Y-186250471D01*
X219100880Y-186250471D02*
X219100880Y-186393328D01*
X219815166Y-186393328D02*
X219815166Y-184893328D01*
X219958024Y-185821900D02*
X220386595Y-186393328D01*
X220386595Y-185393328D02*
X219815166Y-185964757D01*
X221029452Y-186393328D02*
X221029452Y-185393328D01*
X221029452Y-184893328D02*
X220958024Y-184964757D01*
X220958024Y-184964757D02*
X221029452Y-185036185D01*
X221029452Y-185036185D02*
X221100881Y-184964757D01*
X221100881Y-184964757D02*
X221029452Y-184893328D01*
X221029452Y-184893328D02*
X221029452Y-185036185D01*
X222386596Y-186321900D02*
X222243738Y-186393328D01*
X222243738Y-186393328D02*
X221958024Y-186393328D01*
X221958024Y-186393328D02*
X221815167Y-186321900D01*
X221815167Y-186321900D02*
X221743738Y-186250471D01*
X221743738Y-186250471D02*
X221672310Y-186107614D01*
X221672310Y-186107614D02*
X221672310Y-185679042D01*
X221672310Y-185679042D02*
X221743738Y-185536185D01*
X221743738Y-185536185D02*
X221815167Y-185464757D01*
X221815167Y-185464757D02*
X221958024Y-185393328D01*
X221958024Y-185393328D02*
X222243738Y-185393328D01*
X222243738Y-185393328D02*
X222386596Y-185464757D01*
X223672310Y-186393328D02*
X223672310Y-185607614D01*
X223672310Y-185607614D02*
X223600881Y-185464757D01*
X223600881Y-185464757D02*
X223458024Y-185393328D01*
X223458024Y-185393328D02*
X223172310Y-185393328D01*
X223172310Y-185393328D02*
X223029452Y-185464757D01*
X223672310Y-186321900D02*
X223529452Y-186393328D01*
X223529452Y-186393328D02*
X223172310Y-186393328D01*
X223172310Y-186393328D02*
X223029452Y-186321900D01*
X223029452Y-186321900D02*
X222958024Y-186179042D01*
X222958024Y-186179042D02*
X222958024Y-186036185D01*
X222958024Y-186036185D02*
X223029452Y-185893328D01*
X223029452Y-185893328D02*
X223172310Y-185821900D01*
X223172310Y-185821900D02*
X223529452Y-185821900D01*
X223529452Y-185821900D02*
X223672310Y-185750471D01*
X225029453Y-186393328D02*
X225029453Y-184893328D01*
X225029453Y-186321900D02*
X224886595Y-186393328D01*
X224886595Y-186393328D02*
X224600881Y-186393328D01*
X224600881Y-186393328D02*
X224458024Y-186321900D01*
X224458024Y-186321900D02*
X224386595Y-186250471D01*
X224386595Y-186250471D02*
X224315167Y-186107614D01*
X224315167Y-186107614D02*
X224315167Y-185679042D01*
X224315167Y-185679042D02*
X224386595Y-185536185D01*
X224386595Y-185536185D02*
X224458024Y-185464757D01*
X224458024Y-185464757D02*
X224600881Y-185393328D01*
X224600881Y-185393328D02*
X224886595Y-185393328D01*
X224886595Y-185393328D02*
X225029453Y-185464757D01*
X225386596Y-186536185D02*
X226529453Y-186536185D01*
X226886595Y-185393328D02*
X226886595Y-186893328D01*
X226886595Y-185464757D02*
X227029453Y-185393328D01*
X227029453Y-185393328D02*
X227315167Y-185393328D01*
X227315167Y-185393328D02*
X227458024Y-185464757D01*
X227458024Y-185464757D02*
X227529453Y-185536185D01*
X227529453Y-185536185D02*
X227600881Y-185679042D01*
X227600881Y-185679042D02*
X227600881Y-186107614D01*
X227600881Y-186107614D02*
X227529453Y-186250471D01*
X227529453Y-186250471D02*
X227458024Y-186321900D01*
X227458024Y-186321900D02*
X227315167Y-186393328D01*
X227315167Y-186393328D02*
X227029453Y-186393328D01*
X227029453Y-186393328D02*
X226886595Y-186321900D01*
X228886596Y-186321900D02*
X228743738Y-186393328D01*
X228743738Y-186393328D02*
X228458024Y-186393328D01*
X228458024Y-186393328D02*
X228315167Y-186321900D01*
X228315167Y-186321900D02*
X228243738Y-186250471D01*
X228243738Y-186250471D02*
X228172310Y-186107614D01*
X228172310Y-186107614D02*
X228172310Y-185679042D01*
X228172310Y-185679042D02*
X228243738Y-185536185D01*
X228243738Y-185536185D02*
X228315167Y-185464757D01*
X228315167Y-185464757D02*
X228458024Y-185393328D01*
X228458024Y-185393328D02*
X228743738Y-185393328D01*
X228743738Y-185393328D02*
X228886596Y-185464757D01*
X229529452Y-186393328D02*
X229529452Y-184893328D01*
X229529452Y-185464757D02*
X229672310Y-185393328D01*
X229672310Y-185393328D02*
X229958024Y-185393328D01*
X229958024Y-185393328D02*
X230100881Y-185464757D01*
X230100881Y-185464757D02*
X230172310Y-185536185D01*
X230172310Y-185536185D02*
X230243738Y-185679042D01*
X230243738Y-185679042D02*
X230243738Y-186107614D01*
X230243738Y-186107614D02*
X230172310Y-186250471D01*
X230172310Y-186250471D02*
X230100881Y-186321900D01*
X230100881Y-186321900D02*
X229958024Y-186393328D01*
X229958024Y-186393328D02*
X229672310Y-186393328D01*
X229672310Y-186393328D02*
X229529452Y-186321900D01*
D10*
D11*
X177002200Y-181507200D02*
X285002200Y-181507200D01*
D10*
D11*
X178386598Y-183621900D02*
X178600884Y-183693328D01*
X178600884Y-183693328D02*
X178958026Y-183693328D01*
X178958026Y-183693328D02*
X179100884Y-183621900D01*
X179100884Y-183621900D02*
X179172312Y-183550471D01*
X179172312Y-183550471D02*
X179243741Y-183407614D01*
X179243741Y-183407614D02*
X179243741Y-183264757D01*
X179243741Y-183264757D02*
X179172312Y-183121900D01*
X179172312Y-183121900D02*
X179100884Y-183050471D01*
X179100884Y-183050471D02*
X178958026Y-182979042D01*
X178958026Y-182979042D02*
X178672312Y-182907614D01*
X178672312Y-182907614D02*
X178529455Y-182836185D01*
X178529455Y-182836185D02*
X178458026Y-182764757D01*
X178458026Y-182764757D02*
X178386598Y-182621900D01*
X178386598Y-182621900D02*
X178386598Y-182479042D01*
X178386598Y-182479042D02*
X178458026Y-182336185D01*
X178458026Y-182336185D02*
X178529455Y-182264757D01*
X178529455Y-182264757D02*
X178672312Y-182193328D01*
X178672312Y-182193328D02*
X179029455Y-182193328D01*
X179029455Y-182193328D02*
X179243741Y-182264757D01*
X179886597Y-183693328D02*
X179886597Y-182193328D01*
X180529455Y-183693328D02*
X180529455Y-182907614D01*
X180529455Y-182907614D02*
X180458026Y-182764757D01*
X180458026Y-182764757D02*
X180315169Y-182693328D01*
X180315169Y-182693328D02*
X180100883Y-182693328D01*
X180100883Y-182693328D02*
X179958026Y-182764757D01*
X179958026Y-182764757D02*
X179886597Y-182836185D01*
X181815169Y-183621900D02*
X181672312Y-183693328D01*
X181672312Y-183693328D02*
X181386598Y-183693328D01*
X181386598Y-183693328D02*
X181243740Y-183621900D01*
X181243740Y-183621900D02*
X181172312Y-183479042D01*
X181172312Y-183479042D02*
X181172312Y-182907614D01*
X181172312Y-182907614D02*
X181243740Y-182764757D01*
X181243740Y-182764757D02*
X181386598Y-182693328D01*
X181386598Y-182693328D02*
X181672312Y-182693328D01*
X181672312Y-182693328D02*
X181815169Y-182764757D01*
X181815169Y-182764757D02*
X181886598Y-182907614D01*
X181886598Y-182907614D02*
X181886598Y-183050471D01*
X181886598Y-183050471D02*
X181172312Y-183193328D01*
X183100883Y-183621900D02*
X182958026Y-183693328D01*
X182958026Y-183693328D02*
X182672312Y-183693328D01*
X182672312Y-183693328D02*
X182529454Y-183621900D01*
X182529454Y-183621900D02*
X182458026Y-183479042D01*
X182458026Y-183479042D02*
X182458026Y-182907614D01*
X182458026Y-182907614D02*
X182529454Y-182764757D01*
X182529454Y-182764757D02*
X182672312Y-182693328D01*
X182672312Y-182693328D02*
X182958026Y-182693328D01*
X182958026Y-182693328D02*
X183100883Y-182764757D01*
X183100883Y-182764757D02*
X183172312Y-182907614D01*
X183172312Y-182907614D02*
X183172312Y-183050471D01*
X183172312Y-183050471D02*
X182458026Y-183193328D01*
X183600883Y-182693328D02*
X184172311Y-182693328D01*
X183815168Y-182193328D02*
X183815168Y-183479042D01*
X183815168Y-183479042D02*
X183886597Y-183621900D01*
X183886597Y-183621900D02*
X184029454Y-183693328D01*
X184029454Y-183693328D02*
X184172311Y-183693328D01*
X184672311Y-183550471D02*
X184743740Y-183621900D01*
X184743740Y-183621900D02*
X184672311Y-183693328D01*
X184672311Y-183693328D02*
X184600883Y-183621900D01*
X184600883Y-183621900D02*
X184672311Y-183550471D01*
X184672311Y-183550471D02*
X184672311Y-183693328D01*
X184672311Y-182764757D02*
X184743740Y-182836185D01*
X184743740Y-182836185D02*
X184672311Y-182907614D01*
X184672311Y-182907614D02*
X184600883Y-182836185D01*
X184600883Y-182836185D02*
X184672311Y-182764757D01*
X184672311Y-182764757D02*
X184672311Y-182907614D01*
D10*
D11*
X197002200Y-191507200D02*
X197002200Y-194507200D01*
D10*
D11*
X261002200Y-191507200D02*
X261002200Y-198007200D01*
D10*
X88930074Y-104982419D02*
X88453884Y-104982419D01*
X88453884Y-104982419D02*
X88406265Y-105458609D01*
X88406265Y-105458609D02*
X88453884Y-105410990D01*
X88453884Y-105410990D02*
X88549122Y-105363371D01*
X88549122Y-105363371D02*
X88787217Y-105363371D01*
X88787217Y-105363371D02*
X88882455Y-105410990D01*
X88882455Y-105410990D02*
X88930074Y-105458609D01*
X88930074Y-105458609D02*
X88977693Y-105553847D01*
X88977693Y-105553847D02*
X88977693Y-105791942D01*
X88977693Y-105791942D02*
X88930074Y-105887180D01*
X88930074Y-105887180D02*
X88882455Y-105934800D01*
X88882455Y-105934800D02*
X88787217Y-105982419D01*
X88787217Y-105982419D02*
X88549122Y-105982419D01*
X88549122Y-105982419D02*
X88453884Y-105934800D01*
X88453884Y-105934800D02*
X88406265Y-105887180D01*
X89263408Y-104982419D02*
X89596741Y-105982419D01*
X89596741Y-105982419D02*
X89930074Y-104982419D01*
X111372663Y-90211466D02*
X112134568Y-90211466D01*
X111753615Y-90592419D02*
X111753615Y-89830514D01*
X95590074Y-64132419D02*
X95113884Y-64132419D01*
X95113884Y-64132419D02*
X95066265Y-64608609D01*
X95066265Y-64608609D02*
X95113884Y-64560990D01*
X95113884Y-64560990D02*
X95209122Y-64513371D01*
X95209122Y-64513371D02*
X95447217Y-64513371D01*
X95447217Y-64513371D02*
X95542455Y-64560990D01*
X95542455Y-64560990D02*
X95590074Y-64608609D01*
X95590074Y-64608609D02*
X95637693Y-64703847D01*
X95637693Y-64703847D02*
X95637693Y-64941942D01*
X95637693Y-64941942D02*
X95590074Y-65037180D01*
X95590074Y-65037180D02*
X95542455Y-65084800D01*
X95542455Y-65084800D02*
X95447217Y-65132419D01*
X95447217Y-65132419D02*
X95209122Y-65132419D01*
X95209122Y-65132419D02*
X95113884Y-65084800D01*
X95113884Y-65084800D02*
X95066265Y-65037180D01*
X95923408Y-64132419D02*
X96256741Y-65132419D01*
X96256741Y-65132419D02*
X96590074Y-64132419D01*
X89150246Y-64182419D02*
X89769293Y-64182419D01*
X89769293Y-64182419D02*
X89435960Y-64563371D01*
X89435960Y-64563371D02*
X89578817Y-64563371D01*
X89578817Y-64563371D02*
X89674055Y-64610990D01*
X89674055Y-64610990D02*
X89721674Y-64658609D01*
X89721674Y-64658609D02*
X89769293Y-64753847D01*
X89769293Y-64753847D02*
X89769293Y-64991942D01*
X89769293Y-64991942D02*
X89721674Y-65087180D01*
X89721674Y-65087180D02*
X89674055Y-65134800D01*
X89674055Y-65134800D02*
X89578817Y-65182419D01*
X89578817Y-65182419D02*
X89293103Y-65182419D01*
X89293103Y-65182419D02*
X89197865Y-65134800D01*
X89197865Y-65134800D02*
X89150246Y-65087180D01*
X90197865Y-65087180D02*
X90245484Y-65134800D01*
X90245484Y-65134800D02*
X90197865Y-65182419D01*
X90197865Y-65182419D02*
X90150246Y-65134800D01*
X90150246Y-65134800D02*
X90197865Y-65087180D01*
X90197865Y-65087180D02*
X90197865Y-65182419D01*
X90578817Y-64182419D02*
X91197864Y-64182419D01*
X91197864Y-64182419D02*
X90864531Y-64563371D01*
X90864531Y-64563371D02*
X91007388Y-64563371D01*
X91007388Y-64563371D02*
X91102626Y-64610990D01*
X91102626Y-64610990D02*
X91150245Y-64658609D01*
X91150245Y-64658609D02*
X91197864Y-64753847D01*
X91197864Y-64753847D02*
X91197864Y-64991942D01*
X91197864Y-64991942D02*
X91150245Y-65087180D01*
X91150245Y-65087180D02*
X91102626Y-65134800D01*
X91102626Y-65134800D02*
X91007388Y-65182419D01*
X91007388Y-65182419D02*
X90721674Y-65182419D01*
X90721674Y-65182419D02*
X90626436Y-65134800D01*
X90626436Y-65134800D02*
X90578817Y-65087180D01*
X91483579Y-64182419D02*
X91816912Y-65182419D01*
X91816912Y-65182419D02*
X92150245Y-64182419D01*
X104030038Y-103202306D02*
X103982419Y-103297544D01*
X103982419Y-103297544D02*
X103982419Y-103440401D01*
X103982419Y-103440401D02*
X104030038Y-103583258D01*
X104030038Y-103583258D02*
X104125276Y-103678496D01*
X104125276Y-103678496D02*
X104220514Y-103726115D01*
X104220514Y-103726115D02*
X104410990Y-103773734D01*
X104410990Y-103773734D02*
X104553847Y-103773734D01*
X104553847Y-103773734D02*
X104744323Y-103726115D01*
X104744323Y-103726115D02*
X104839561Y-103678496D01*
X104839561Y-103678496D02*
X104934800Y-103583258D01*
X104934800Y-103583258D02*
X104982419Y-103440401D01*
X104982419Y-103440401D02*
X104982419Y-103345163D01*
X104982419Y-103345163D02*
X104934800Y-103202306D01*
X104934800Y-103202306D02*
X104887180Y-103154687D01*
X104887180Y-103154687D02*
X104553847Y-103154687D01*
X104553847Y-103154687D02*
X104553847Y-103345163D01*
X104982419Y-102726115D02*
X103982419Y-102726115D01*
X103982419Y-102726115D02*
X104982419Y-102154687D01*
X104982419Y-102154687D02*
X103982419Y-102154687D01*
X104982419Y-101678496D02*
X103982419Y-101678496D01*
X103982419Y-101678496D02*
X103982419Y-101440401D01*
X103982419Y-101440401D02*
X104030038Y-101297544D01*
X104030038Y-101297544D02*
X104125276Y-101202306D01*
X104125276Y-101202306D02*
X104220514Y-101154687D01*
X104220514Y-101154687D02*
X104410990Y-101107068D01*
X104410990Y-101107068D02*
X104553847Y-101107068D01*
X104553847Y-101107068D02*
X104744323Y-101154687D01*
X104744323Y-101154687D02*
X104839561Y-101202306D01*
X104839561Y-101202306D02*
X104934800Y-101297544D01*
X104934800Y-101297544D02*
X104982419Y-101440401D01*
X104982419Y-101440401D02*
X104982419Y-101678496D01*
X93397446Y-105052419D02*
X94016493Y-105052419D01*
X94016493Y-105052419D02*
X93683160Y-105433371D01*
X93683160Y-105433371D02*
X93826017Y-105433371D01*
X93826017Y-105433371D02*
X93921255Y-105480990D01*
X93921255Y-105480990D02*
X93968874Y-105528609D01*
X93968874Y-105528609D02*
X94016493Y-105623847D01*
X94016493Y-105623847D02*
X94016493Y-105861942D01*
X94016493Y-105861942D02*
X93968874Y-105957180D01*
X93968874Y-105957180D02*
X93921255Y-106004800D01*
X93921255Y-106004800D02*
X93826017Y-106052419D01*
X93826017Y-106052419D02*
X93540303Y-106052419D01*
X93540303Y-106052419D02*
X93445065Y-106004800D01*
X93445065Y-106004800D02*
X93397446Y-105957180D01*
X94445065Y-105957180D02*
X94492684Y-106004800D01*
X94492684Y-106004800D02*
X94445065Y-106052419D01*
X94445065Y-106052419D02*
X94397446Y-106004800D01*
X94397446Y-106004800D02*
X94445065Y-105957180D01*
X94445065Y-105957180D02*
X94445065Y-106052419D01*
X94826017Y-105052419D02*
X95445064Y-105052419D01*
X95445064Y-105052419D02*
X95111731Y-105433371D01*
X95111731Y-105433371D02*
X95254588Y-105433371D01*
X95254588Y-105433371D02*
X95349826Y-105480990D01*
X95349826Y-105480990D02*
X95397445Y-105528609D01*
X95397445Y-105528609D02*
X95445064Y-105623847D01*
X95445064Y-105623847D02*
X95445064Y-105861942D01*
X95445064Y-105861942D02*
X95397445Y-105957180D01*
X95397445Y-105957180D02*
X95349826Y-106004800D01*
X95349826Y-106004800D02*
X95254588Y-106052419D01*
X95254588Y-106052419D02*
X94968874Y-106052419D01*
X94968874Y-106052419D02*
X94873636Y-106004800D01*
X94873636Y-106004800D02*
X94826017Y-105957180D01*
X95730779Y-105052419D02*
X96064112Y-106052419D01*
X96064112Y-106052419D02*
X96397445Y-105052419D01*
X103990038Y-63452306D02*
X103942419Y-63547544D01*
X103942419Y-63547544D02*
X103942419Y-63690401D01*
X103942419Y-63690401D02*
X103990038Y-63833258D01*
X103990038Y-63833258D02*
X104085276Y-63928496D01*
X104085276Y-63928496D02*
X104180514Y-63976115D01*
X104180514Y-63976115D02*
X104370990Y-64023734D01*
X104370990Y-64023734D02*
X104513847Y-64023734D01*
X104513847Y-64023734D02*
X104704323Y-63976115D01*
X104704323Y-63976115D02*
X104799561Y-63928496D01*
X104799561Y-63928496D02*
X104894800Y-63833258D01*
X104894800Y-63833258D02*
X104942419Y-63690401D01*
X104942419Y-63690401D02*
X104942419Y-63595163D01*
X104942419Y-63595163D02*
X104894800Y-63452306D01*
X104894800Y-63452306D02*
X104847180Y-63404687D01*
X104847180Y-63404687D02*
X104513847Y-63404687D01*
X104513847Y-63404687D02*
X104513847Y-63595163D01*
X104942419Y-62976115D02*
X103942419Y-62976115D01*
X103942419Y-62976115D02*
X104942419Y-62404687D01*
X104942419Y-62404687D02*
X103942419Y-62404687D01*
X104942419Y-61928496D02*
X103942419Y-61928496D01*
X103942419Y-61928496D02*
X103942419Y-61690401D01*
X103942419Y-61690401D02*
X103990038Y-61547544D01*
X103990038Y-61547544D02*
X104085276Y-61452306D01*
X104085276Y-61452306D02*
X104180514Y-61404687D01*
X104180514Y-61404687D02*
X104370990Y-61357068D01*
X104370990Y-61357068D02*
X104513847Y-61357068D01*
X104513847Y-61357068D02*
X104704323Y-61404687D01*
X104704323Y-61404687D02*
X104799561Y-61452306D01*
X104799561Y-61452306D02*
X104894800Y-61547544D01*
X104894800Y-61547544D02*
X104942419Y-61690401D01*
X104942419Y-61690401D02*
X104942419Y-61928496D01*
X108010884Y-90121466D02*
X108772789Y-90121466D01*
X80287419Y-87632271D02*
X80287419Y-88108461D01*
X80287419Y-88108461D02*
X80763609Y-88156080D01*
X80763609Y-88156080D02*
X80715990Y-88108461D01*
X80715990Y-88108461D02*
X80668371Y-88013223D01*
X80668371Y-88013223D02*
X80668371Y-87775128D01*
X80668371Y-87775128D02*
X80715990Y-87679890D01*
X80715990Y-87679890D02*
X80763609Y-87632271D01*
X80763609Y-87632271D02*
X80858847Y-87584652D01*
X80858847Y-87584652D02*
X81096942Y-87584652D01*
X81096942Y-87584652D02*
X81192180Y-87632271D01*
X81192180Y-87632271D02*
X81239800Y-87679890D01*
X81239800Y-87679890D02*
X81287419Y-87775128D01*
X81287419Y-87775128D02*
X81287419Y-88013223D01*
X81287419Y-88013223D02*
X81239800Y-88108461D01*
X81239800Y-88108461D02*
X81192180Y-88156080D01*
X81287419Y-86632271D02*
X81287419Y-87203699D01*
X81287419Y-86917985D02*
X80287419Y-86917985D01*
X80287419Y-86917985D02*
X80430276Y-87013223D01*
X80430276Y-87013223D02*
X80525514Y-87108461D01*
X80525514Y-87108461D02*
X80573133Y-87203699D01*
X81192180Y-86203699D02*
X81239800Y-86156080D01*
X81239800Y-86156080D02*
X81287419Y-86203699D01*
X81287419Y-86203699D02*
X81239800Y-86251318D01*
X81239800Y-86251318D02*
X81192180Y-86203699D01*
X81192180Y-86203699D02*
X81287419Y-86203699D01*
X80287419Y-85298938D02*
X80287419Y-85489414D01*
X80287419Y-85489414D02*
X80335038Y-85584652D01*
X80335038Y-85584652D02*
X80382657Y-85632271D01*
X80382657Y-85632271D02*
X80525514Y-85727509D01*
X80525514Y-85727509D02*
X80715990Y-85775128D01*
X80715990Y-85775128D02*
X81096942Y-85775128D01*
X81096942Y-85775128D02*
X81192180Y-85727509D01*
X81192180Y-85727509D02*
X81239800Y-85679890D01*
X81239800Y-85679890D02*
X81287419Y-85584652D01*
X81287419Y-85584652D02*
X81287419Y-85394176D01*
X81287419Y-85394176D02*
X81239800Y-85298938D01*
X81239800Y-85298938D02*
X81192180Y-85251319D01*
X81192180Y-85251319D02*
X81096942Y-85203700D01*
X81096942Y-85203700D02*
X80858847Y-85203700D01*
X80858847Y-85203700D02*
X80763609Y-85251319D01*
X80763609Y-85251319D02*
X80715990Y-85298938D01*
X80715990Y-85298938D02*
X80668371Y-85394176D01*
X80668371Y-85394176D02*
X80668371Y-85584652D01*
X80668371Y-85584652D02*
X80715990Y-85679890D01*
X80715990Y-85679890D02*
X80763609Y-85727509D01*
X80763609Y-85727509D02*
X80858847Y-85775128D01*
X80287419Y-84298938D02*
X80287419Y-84775128D01*
X80287419Y-84775128D02*
X80763609Y-84822747D01*
X80763609Y-84822747D02*
X80715990Y-84775128D01*
X80715990Y-84775128D02*
X80668371Y-84679890D01*
X80668371Y-84679890D02*
X80668371Y-84441795D01*
X80668371Y-84441795D02*
X80715990Y-84346557D01*
X80715990Y-84346557D02*
X80763609Y-84298938D01*
X80763609Y-84298938D02*
X80858847Y-84251319D01*
X80858847Y-84251319D02*
X81096942Y-84251319D01*
X81096942Y-84251319D02*
X81192180Y-84298938D01*
X81192180Y-84298938D02*
X81239800Y-84346557D01*
X81239800Y-84346557D02*
X81287419Y-84441795D01*
X81287419Y-84441795D02*
X81287419Y-84679890D01*
X81287419Y-84679890D02*
X81239800Y-84775128D01*
X81239800Y-84775128D02*
X81192180Y-84822747D01*
X80287419Y-83346557D02*
X80287419Y-83822747D01*
X80287419Y-83822747D02*
X80763609Y-83870366D01*
X80763609Y-83870366D02*
X80715990Y-83822747D01*
X80715990Y-83822747D02*
X80668371Y-83727509D01*
X80668371Y-83727509D02*
X80668371Y-83489414D01*
X80668371Y-83489414D02*
X80715990Y-83394176D01*
X80715990Y-83394176D02*
X80763609Y-83346557D01*
X80763609Y-83346557D02*
X80858847Y-83298938D01*
X80858847Y-83298938D02*
X81096942Y-83298938D01*
X81096942Y-83298938D02*
X81192180Y-83346557D01*
X81192180Y-83346557D02*
X81239800Y-83394176D01*
X81239800Y-83394176D02*
X81287419Y-83489414D01*
X81287419Y-83489414D02*
X81287419Y-83727509D01*
X81287419Y-83727509D02*
X81239800Y-83822747D01*
X81239800Y-83822747D02*
X81192180Y-83870366D01*
X84590000Y-59900000D02*
X81343580Y-59900000D01*
X81343580Y-111555019D02*
X84590000Y-111555019D01*
X81930000Y-59900000D02*
X81930000Y-111555019D01*
X81930000Y-59900000D02*
X82516421Y-61026504D01*
X81930000Y-59900000D02*
X81343579Y-61026504D01*
X81930000Y-111555019D02*
X81343579Y-110428515D01*
X81930000Y-111555019D02*
X82516421Y-110428515D01*
D11*
X107754819Y-93426666D02*
X107278628Y-93759999D01*
X107754819Y-93998094D02*
X106754819Y-93998094D01*
X106754819Y-93998094D02*
X106754819Y-93617142D01*
X106754819Y-93617142D02*
X106802438Y-93521904D01*
X106802438Y-93521904D02*
X106850057Y-93474285D01*
X106850057Y-93474285D02*
X106945295Y-93426666D01*
X106945295Y-93426666D02*
X107088152Y-93426666D01*
X107088152Y-93426666D02*
X107183390Y-93474285D01*
X107183390Y-93474285D02*
X107231009Y-93521904D01*
X107231009Y-93521904D02*
X107278628Y-93617142D01*
X107278628Y-93617142D02*
X107278628Y-93998094D01*
X106850057Y-93045713D02*
X106802438Y-92998094D01*
X106802438Y-92998094D02*
X106754819Y-92902856D01*
X106754819Y-92902856D02*
X106754819Y-92664761D01*
X106754819Y-92664761D02*
X106802438Y-92569523D01*
X106802438Y-92569523D02*
X106850057Y-92521904D01*
X106850057Y-92521904D02*
X106945295Y-92474285D01*
X106945295Y-92474285D02*
X107040533Y-92474285D01*
X107040533Y-92474285D02*
X107183390Y-92521904D01*
X107183390Y-92521904D02*
X107754819Y-93093332D01*
X107754819Y-93093332D02*
X107754819Y-92474285D01*
X113092295Y-94070000D02*
X113092295Y-93636666D01*
X113092295Y-93636666D02*
X113397057Y-93870000D01*
X113397057Y-93870000D02*
X113397057Y-93770000D01*
X113397057Y-93770000D02*
X113435152Y-93703333D01*
X113435152Y-93703333D02*
X113473247Y-93670000D01*
X113473247Y-93670000D02*
X113549438Y-93636666D01*
X113549438Y-93636666D02*
X113739914Y-93636666D01*
X113739914Y-93636666D02*
X113816104Y-93670000D01*
X113816104Y-93670000D02*
X113854200Y-93703333D01*
X113854200Y-93703333D02*
X113892295Y-93770000D01*
X113892295Y-93770000D02*
X113892295Y-93970000D01*
X113892295Y-93970000D02*
X113854200Y-94036666D01*
X113854200Y-94036666D02*
X113816104Y-94070000D01*
X113092295Y-93403333D02*
X113092295Y-92969999D01*
X113092295Y-92969999D02*
X113397057Y-93203333D01*
X113397057Y-93203333D02*
X113397057Y-93103333D01*
X113397057Y-93103333D02*
X113435152Y-93036666D01*
X113435152Y-93036666D02*
X113473247Y-93003333D01*
X113473247Y-93003333D02*
X113549438Y-92969999D01*
X113549438Y-92969999D02*
X113739914Y-92969999D01*
X113739914Y-92969999D02*
X113816104Y-93003333D01*
X113816104Y-93003333D02*
X113854200Y-93036666D01*
X113854200Y-93036666D02*
X113892295Y-93103333D01*
X113892295Y-93103333D02*
X113892295Y-93303333D01*
X113892295Y-93303333D02*
X113854200Y-93369999D01*
X113854200Y-93369999D02*
X113816104Y-93403333D01*
X113092295Y-92536666D02*
X113092295Y-92469999D01*
X113092295Y-92469999D02*
X113130390Y-92403332D01*
X113130390Y-92403332D02*
X113168485Y-92369999D01*
X113168485Y-92369999D02*
X113244676Y-92336666D01*
X113244676Y-92336666D02*
X113397057Y-92303332D01*
X113397057Y-92303332D02*
X113587533Y-92303332D01*
X113587533Y-92303332D02*
X113739914Y-92336666D01*
X113739914Y-92336666D02*
X113816104Y-92369999D01*
X113816104Y-92369999D02*
X113854200Y-92403332D01*
X113854200Y-92403332D02*
X113892295Y-92469999D01*
X113892295Y-92469999D02*
X113892295Y-92536666D01*
X113892295Y-92536666D02*
X113854200Y-92603332D01*
X113854200Y-92603332D02*
X113816104Y-92636666D01*
X113816104Y-92636666D02*
X113739914Y-92669999D01*
X113739914Y-92669999D02*
X113587533Y-92703332D01*
X113587533Y-92703332D02*
X113397057Y-92703332D01*
X113397057Y-92703332D02*
X113244676Y-92669999D01*
X113244676Y-92669999D02*
X113168485Y-92636666D01*
X113168485Y-92636666D02*
X113130390Y-92603332D01*
X113130390Y-92603332D02*
X113092295Y-92536666D01*
X96634819Y-108623333D02*
X97349104Y-108623333D01*
X97349104Y-108623333D02*
X97491961Y-108670952D01*
X97491961Y-108670952D02*
X97587200Y-108766190D01*
X97587200Y-108766190D02*
X97634819Y-108909047D01*
X97634819Y-108909047D02*
X97634819Y-109004285D01*
X96634819Y-108242380D02*
X96634819Y-107623333D01*
X96634819Y-107623333D02*
X97015771Y-107956666D01*
X97015771Y-107956666D02*
X97015771Y-107813809D01*
X97015771Y-107813809D02*
X97063390Y-107718571D01*
X97063390Y-107718571D02*
X97111009Y-107670952D01*
X97111009Y-107670952D02*
X97206247Y-107623333D01*
X97206247Y-107623333D02*
X97444342Y-107623333D01*
X97444342Y-107623333D02*
X97539580Y-107670952D01*
X97539580Y-107670952D02*
X97587200Y-107718571D01*
X97587200Y-107718571D02*
X97634819Y-107813809D01*
X97634819Y-107813809D02*
X97634819Y-108099523D01*
X97634819Y-108099523D02*
X97587200Y-108194761D01*
X97587200Y-108194761D02*
X97539580Y-108242380D01*
X88583333Y-110626104D02*
X88550000Y-110664200D01*
X88550000Y-110664200D02*
X88450000Y-110702295D01*
X88450000Y-110702295D02*
X88383333Y-110702295D01*
X88383333Y-110702295D02*
X88283333Y-110664200D01*
X88283333Y-110664200D02*
X88216667Y-110588009D01*
X88216667Y-110588009D02*
X88183333Y-110511819D01*
X88183333Y-110511819D02*
X88150000Y-110359438D01*
X88150000Y-110359438D02*
X88150000Y-110245152D01*
X88150000Y-110245152D02*
X88183333Y-110092771D01*
X88183333Y-110092771D02*
X88216667Y-110016580D01*
X88216667Y-110016580D02*
X88283333Y-109940390D01*
X88283333Y-109940390D02*
X88383333Y-109902295D01*
X88383333Y-109902295D02*
X88450000Y-109902295D01*
X88450000Y-109902295D02*
X88550000Y-109940390D01*
X88550000Y-109940390D02*
X88583333Y-109978485D01*
X88983333Y-110702295D02*
X88916667Y-110664200D01*
X88916667Y-110664200D02*
X88883333Y-110626104D01*
X88883333Y-110626104D02*
X88850000Y-110549914D01*
X88850000Y-110549914D02*
X88850000Y-110321342D01*
X88850000Y-110321342D02*
X88883333Y-110245152D01*
X88883333Y-110245152D02*
X88916667Y-110207057D01*
X88916667Y-110207057D02*
X88983333Y-110168961D01*
X88983333Y-110168961D02*
X89083333Y-110168961D01*
X89083333Y-110168961D02*
X89150000Y-110207057D01*
X89150000Y-110207057D02*
X89183333Y-110245152D01*
X89183333Y-110245152D02*
X89216667Y-110321342D01*
X89216667Y-110321342D02*
X89216667Y-110549914D01*
X89216667Y-110549914D02*
X89183333Y-110626104D01*
X89183333Y-110626104D02*
X89150000Y-110664200D01*
X89150000Y-110664200D02*
X89083333Y-110702295D01*
X89083333Y-110702295D02*
X88983333Y-110702295D01*
X89516666Y-110168961D02*
X89516666Y-110702295D01*
X89516666Y-110245152D02*
X89550000Y-110207057D01*
X89550000Y-110207057D02*
X89616666Y-110168961D01*
X89616666Y-110168961D02*
X89716666Y-110168961D01*
X89716666Y-110168961D02*
X89783333Y-110207057D01*
X89783333Y-110207057D02*
X89816666Y-110283247D01*
X89816666Y-110283247D02*
X89816666Y-110702295D01*
X90149999Y-110168961D02*
X90149999Y-110702295D01*
X90149999Y-110245152D02*
X90183333Y-110207057D01*
X90183333Y-110207057D02*
X90249999Y-110168961D01*
X90249999Y-110168961D02*
X90349999Y-110168961D01*
X90349999Y-110168961D02*
X90416666Y-110207057D01*
X90416666Y-110207057D02*
X90449999Y-110283247D01*
X90449999Y-110283247D02*
X90449999Y-110702295D01*
X90616666Y-110778485D02*
X91149999Y-110778485D01*
X91449999Y-109902295D02*
X91516665Y-109902295D01*
X91516665Y-109902295D02*
X91583332Y-109940390D01*
X91583332Y-109940390D02*
X91616665Y-109978485D01*
X91616665Y-109978485D02*
X91649999Y-110054676D01*
X91649999Y-110054676D02*
X91683332Y-110207057D01*
X91683332Y-110207057D02*
X91683332Y-110397533D01*
X91683332Y-110397533D02*
X91649999Y-110549914D01*
X91649999Y-110549914D02*
X91616665Y-110626104D01*
X91616665Y-110626104D02*
X91583332Y-110664200D01*
X91583332Y-110664200D02*
X91516665Y-110702295D01*
X91516665Y-110702295D02*
X91449999Y-110702295D01*
X91449999Y-110702295D02*
X91383332Y-110664200D01*
X91383332Y-110664200D02*
X91349999Y-110626104D01*
X91349999Y-110626104D02*
X91316665Y-110549914D01*
X91316665Y-110549914D02*
X91283332Y-110397533D01*
X91283332Y-110397533D02*
X91283332Y-110207057D01*
X91283332Y-110207057D02*
X91316665Y-110054676D01*
X91316665Y-110054676D02*
X91349999Y-109978485D01*
X91349999Y-109978485D02*
X91383332Y-109940390D01*
X91383332Y-109940390D02*
X91449999Y-109902295D01*
X92349999Y-110702295D02*
X91949999Y-110702295D01*
X92149999Y-110702295D02*
X92149999Y-109902295D01*
X92149999Y-109902295D02*
X92083332Y-110016580D01*
X92083332Y-110016580D02*
X92016666Y-110092771D01*
X92016666Y-110092771D02*
X91949999Y-110130866D01*
X92583333Y-110702295D02*
X92949999Y-110168961D01*
X92583333Y-110168961D02*
X92949999Y-110702295D01*
X93350000Y-109902295D02*
X93416666Y-109902295D01*
X93416666Y-109902295D02*
X93483333Y-109940390D01*
X93483333Y-109940390D02*
X93516666Y-109978485D01*
X93516666Y-109978485D02*
X93550000Y-110054676D01*
X93550000Y-110054676D02*
X93583333Y-110207057D01*
X93583333Y-110207057D02*
X93583333Y-110397533D01*
X93583333Y-110397533D02*
X93550000Y-110549914D01*
X93550000Y-110549914D02*
X93516666Y-110626104D01*
X93516666Y-110626104D02*
X93483333Y-110664200D01*
X93483333Y-110664200D02*
X93416666Y-110702295D01*
X93416666Y-110702295D02*
X93350000Y-110702295D01*
X93350000Y-110702295D02*
X93283333Y-110664200D01*
X93283333Y-110664200D02*
X93250000Y-110626104D01*
X93250000Y-110626104D02*
X93216666Y-110549914D01*
X93216666Y-110549914D02*
X93183333Y-110397533D01*
X93183333Y-110397533D02*
X93183333Y-110207057D01*
X93183333Y-110207057D02*
X93216666Y-110054676D01*
X93216666Y-110054676D02*
X93250000Y-109978485D01*
X93250000Y-109978485D02*
X93283333Y-109940390D01*
X93283333Y-109940390D02*
X93350000Y-109902295D01*
X93816667Y-109902295D02*
X94250000Y-109902295D01*
X94250000Y-109902295D02*
X94016667Y-110207057D01*
X94016667Y-110207057D02*
X94116667Y-110207057D01*
X94116667Y-110207057D02*
X94183333Y-110245152D01*
X94183333Y-110245152D02*
X94216667Y-110283247D01*
X94216667Y-110283247D02*
X94250000Y-110359438D01*
X94250000Y-110359438D02*
X94250000Y-110549914D01*
X94250000Y-110549914D02*
X94216667Y-110626104D01*
X94216667Y-110626104D02*
X94183333Y-110664200D01*
X94183333Y-110664200D02*
X94116667Y-110702295D01*
X94116667Y-110702295D02*
X93916667Y-110702295D01*
X93916667Y-110702295D02*
X93850000Y-110664200D01*
X93850000Y-110664200D02*
X93816667Y-110626104D01*
X94383334Y-110778485D02*
X94916667Y-110778485D01*
X95083333Y-110702295D02*
X95083333Y-109902295D01*
X95083333Y-109902295D02*
X95350000Y-109902295D01*
X95350000Y-109902295D02*
X95416667Y-109940390D01*
X95416667Y-109940390D02*
X95450000Y-109978485D01*
X95450000Y-109978485D02*
X95483333Y-110054676D01*
X95483333Y-110054676D02*
X95483333Y-110168961D01*
X95483333Y-110168961D02*
X95450000Y-110245152D01*
X95450000Y-110245152D02*
X95416667Y-110283247D01*
X95416667Y-110283247D02*
X95350000Y-110321342D01*
X95350000Y-110321342D02*
X95083333Y-110321342D01*
X95783333Y-110702295D02*
X95783333Y-110168961D01*
X95783333Y-109902295D02*
X95750000Y-109940390D01*
X95750000Y-109940390D02*
X95783333Y-109978485D01*
X95783333Y-109978485D02*
X95816667Y-109940390D01*
X95816667Y-109940390D02*
X95783333Y-109902295D01*
X95783333Y-109902295D02*
X95783333Y-109978485D01*
X96116666Y-110168961D02*
X96116666Y-110702295D01*
X96116666Y-110245152D02*
X96150000Y-110207057D01*
X96150000Y-110207057D02*
X96216666Y-110168961D01*
X96216666Y-110168961D02*
X96316666Y-110168961D01*
X96316666Y-110168961D02*
X96383333Y-110207057D01*
X96383333Y-110207057D02*
X96416666Y-110283247D01*
X96416666Y-110283247D02*
X96416666Y-110702295D01*
X103975819Y-66004234D02*
X104690104Y-66004234D01*
X104690104Y-66004234D02*
X104832961Y-66051853D01*
X104832961Y-66051853D02*
X104928200Y-66147091D01*
X104928200Y-66147091D02*
X104975819Y-66289948D01*
X104975819Y-66289948D02*
X104975819Y-66385186D01*
X103975819Y-65051853D02*
X103975819Y-65528043D01*
X103975819Y-65528043D02*
X104452009Y-65575662D01*
X104452009Y-65575662D02*
X104404390Y-65528043D01*
X104404390Y-65528043D02*
X104356771Y-65432805D01*
X104356771Y-65432805D02*
X104356771Y-65194710D01*
X104356771Y-65194710D02*
X104404390Y-65099472D01*
X104404390Y-65099472D02*
X104452009Y-65051853D01*
X104452009Y-65051853D02*
X104547247Y-65004234D01*
X104547247Y-65004234D02*
X104785342Y-65004234D01*
X104785342Y-65004234D02*
X104880580Y-65051853D01*
X104880580Y-65051853D02*
X104928200Y-65099472D01*
X104928200Y-65099472D02*
X104975819Y-65194710D01*
X104975819Y-65194710D02*
X104975819Y-65432805D01*
X104975819Y-65432805D02*
X104928200Y-65528043D01*
X104928200Y-65528043D02*
X104880580Y-65575662D01*
X104146666Y-106784819D02*
X104146666Y-107499104D01*
X104146666Y-107499104D02*
X104099047Y-107641961D01*
X104099047Y-107641961D02*
X104003809Y-107737200D01*
X104003809Y-107737200D02*
X103860952Y-107784819D01*
X103860952Y-107784819D02*
X103765714Y-107784819D01*
X104527619Y-106784819D02*
X105194285Y-106784819D01*
X105194285Y-106784819D02*
X104765714Y-107784819D01*
X86957819Y-73405904D02*
X87767342Y-73405904D01*
X87767342Y-73405904D02*
X87862580Y-73358285D01*
X87862580Y-73358285D02*
X87910200Y-73310666D01*
X87910200Y-73310666D02*
X87957819Y-73215428D01*
X87957819Y-73215428D02*
X87957819Y-73024952D01*
X87957819Y-73024952D02*
X87910200Y-72929714D01*
X87910200Y-72929714D02*
X87862580Y-72882095D01*
X87862580Y-72882095D02*
X87767342Y-72834476D01*
X87767342Y-72834476D02*
X86957819Y-72834476D01*
X87957819Y-71834476D02*
X87957819Y-72405904D01*
X87957819Y-72120190D02*
X86957819Y-72120190D01*
X86957819Y-72120190D02*
X87100676Y-72215428D01*
X87100676Y-72215428D02*
X87195914Y-72310666D01*
X87195914Y-72310666D02*
X87243533Y-72405904D01*
D14*
X89663333Y-70060995D02*
X89329999Y-70060995D01*
X89329999Y-70060995D02*
X89329999Y-69260995D01*
X89896666Y-70060995D02*
X89896666Y-69260995D01*
X89896666Y-69260995D02*
X90130000Y-69832423D01*
X90130000Y-69832423D02*
X90363333Y-69260995D01*
X90363333Y-69260995D02*
X90363333Y-70060995D01*
X90630000Y-69260995D02*
X91096666Y-69260995D01*
X91096666Y-69260995D02*
X90796666Y-70060995D01*
X91463333Y-69603852D02*
X91396667Y-69565757D01*
X91396667Y-69565757D02*
X91363333Y-69527661D01*
X91363333Y-69527661D02*
X91330000Y-69451471D01*
X91330000Y-69451471D02*
X91330000Y-69413376D01*
X91330000Y-69413376D02*
X91363333Y-69337185D01*
X91363333Y-69337185D02*
X91396667Y-69299090D01*
X91396667Y-69299090D02*
X91463333Y-69260995D01*
X91463333Y-69260995D02*
X91596667Y-69260995D01*
X91596667Y-69260995D02*
X91663333Y-69299090D01*
X91663333Y-69299090D02*
X91696667Y-69337185D01*
X91696667Y-69337185D02*
X91730000Y-69413376D01*
X91730000Y-69413376D02*
X91730000Y-69451471D01*
X91730000Y-69451471D02*
X91696667Y-69527661D01*
X91696667Y-69527661D02*
X91663333Y-69565757D01*
X91663333Y-69565757D02*
X91596667Y-69603852D01*
X91596667Y-69603852D02*
X91463333Y-69603852D01*
X91463333Y-69603852D02*
X91396667Y-69641947D01*
X91396667Y-69641947D02*
X91363333Y-69680042D01*
X91363333Y-69680042D02*
X91330000Y-69756233D01*
X91330000Y-69756233D02*
X91330000Y-69908614D01*
X91330000Y-69908614D02*
X91363333Y-69984804D01*
X91363333Y-69984804D02*
X91396667Y-70022900D01*
X91396667Y-70022900D02*
X91463333Y-70060995D01*
X91463333Y-70060995D02*
X91596667Y-70060995D01*
X91596667Y-70060995D02*
X91663333Y-70022900D01*
X91663333Y-70022900D02*
X91696667Y-69984804D01*
X91696667Y-69984804D02*
X91730000Y-69908614D01*
X91730000Y-69908614D02*
X91730000Y-69756233D01*
X91730000Y-69756233D02*
X91696667Y-69680042D01*
X91696667Y-69680042D02*
X91663333Y-69641947D01*
X91663333Y-69641947D02*
X91596667Y-69603852D01*
X92163334Y-69260995D02*
X92230000Y-69260995D01*
X92230000Y-69260995D02*
X92296667Y-69299090D01*
X92296667Y-69299090D02*
X92330000Y-69337185D01*
X92330000Y-69337185D02*
X92363334Y-69413376D01*
X92363334Y-69413376D02*
X92396667Y-69565757D01*
X92396667Y-69565757D02*
X92396667Y-69756233D01*
X92396667Y-69756233D02*
X92363334Y-69908614D01*
X92363334Y-69908614D02*
X92330000Y-69984804D01*
X92330000Y-69984804D02*
X92296667Y-70022900D01*
X92296667Y-70022900D02*
X92230000Y-70060995D01*
X92230000Y-70060995D02*
X92163334Y-70060995D01*
X92163334Y-70060995D02*
X92096667Y-70022900D01*
X92096667Y-70022900D02*
X92063334Y-69984804D01*
X92063334Y-69984804D02*
X92030000Y-69908614D01*
X92030000Y-69908614D02*
X91996667Y-69756233D01*
X91996667Y-69756233D02*
X91996667Y-69565757D01*
X91996667Y-69565757D02*
X92030000Y-69413376D01*
X92030000Y-69413376D02*
X92063334Y-69337185D01*
X92063334Y-69337185D02*
X92096667Y-69299090D01*
X92096667Y-69299090D02*
X92163334Y-69260995D01*
X93030001Y-69260995D02*
X92696667Y-69260995D01*
X92696667Y-69260995D02*
X92663334Y-69641947D01*
X92663334Y-69641947D02*
X92696667Y-69603852D01*
X92696667Y-69603852D02*
X92763334Y-69565757D01*
X92763334Y-69565757D02*
X92930001Y-69565757D01*
X92930001Y-69565757D02*
X92996667Y-69603852D01*
X92996667Y-69603852D02*
X93030001Y-69641947D01*
X93030001Y-69641947D02*
X93063334Y-69718138D01*
X93063334Y-69718138D02*
X93063334Y-69908614D01*
X93063334Y-69908614D02*
X93030001Y-69984804D01*
X93030001Y-69984804D02*
X92996667Y-70022900D01*
X92996667Y-70022900D02*
X92930001Y-70060995D01*
X92930001Y-70060995D02*
X92763334Y-70060995D01*
X92763334Y-70060995D02*
X92696667Y-70022900D01*
X92696667Y-70022900D02*
X92663334Y-69984804D01*
X93196668Y-70137185D02*
X93730001Y-70137185D01*
X93796667Y-69260995D02*
X94196667Y-69260995D01*
X93996667Y-70060995D02*
X93996667Y-69260995D01*
X94563334Y-69260995D02*
X94696667Y-69260995D01*
X94696667Y-69260995D02*
X94763334Y-69299090D01*
X94763334Y-69299090D02*
X94830000Y-69375280D01*
X94830000Y-69375280D02*
X94863334Y-69527661D01*
X94863334Y-69527661D02*
X94863334Y-69794328D01*
X94863334Y-69794328D02*
X94830000Y-69946709D01*
X94830000Y-69946709D02*
X94763334Y-70022900D01*
X94763334Y-70022900D02*
X94696667Y-70060995D01*
X94696667Y-70060995D02*
X94563334Y-70060995D01*
X94563334Y-70060995D02*
X94496667Y-70022900D01*
X94496667Y-70022900D02*
X94430000Y-69946709D01*
X94430000Y-69946709D02*
X94396667Y-69794328D01*
X94396667Y-69794328D02*
X94396667Y-69527661D01*
X94396667Y-69527661D02*
X94430000Y-69375280D01*
X94430000Y-69375280D02*
X94496667Y-69299090D01*
X94496667Y-69299090D02*
X94563334Y-69260995D01*
X95130000Y-69337185D02*
X95163333Y-69299090D01*
X95163333Y-69299090D02*
X95230000Y-69260995D01*
X95230000Y-69260995D02*
X95396667Y-69260995D01*
X95396667Y-69260995D02*
X95463333Y-69299090D01*
X95463333Y-69299090D02*
X95496667Y-69337185D01*
X95496667Y-69337185D02*
X95530000Y-69413376D01*
X95530000Y-69413376D02*
X95530000Y-69489566D01*
X95530000Y-69489566D02*
X95496667Y-69603852D01*
X95496667Y-69603852D02*
X95096667Y-70060995D01*
X95096667Y-70060995D02*
X95530000Y-70060995D01*
X95796667Y-69337185D02*
X95830000Y-69299090D01*
X95830000Y-69299090D02*
X95896667Y-69260995D01*
X95896667Y-69260995D02*
X96063334Y-69260995D01*
X96063334Y-69260995D02*
X96130000Y-69299090D01*
X96130000Y-69299090D02*
X96163334Y-69337185D01*
X96163334Y-69337185D02*
X96196667Y-69413376D01*
X96196667Y-69413376D02*
X96196667Y-69489566D01*
X96196667Y-69489566D02*
X96163334Y-69603852D01*
X96163334Y-69603852D02*
X95763334Y-70060995D01*
X95763334Y-70060995D02*
X96196667Y-70060995D01*
X96630001Y-69260995D02*
X96696667Y-69260995D01*
X96696667Y-69260995D02*
X96763334Y-69299090D01*
X96763334Y-69299090D02*
X96796667Y-69337185D01*
X96796667Y-69337185D02*
X96830001Y-69413376D01*
X96830001Y-69413376D02*
X96863334Y-69565757D01*
X96863334Y-69565757D02*
X96863334Y-69756233D01*
X96863334Y-69756233D02*
X96830001Y-69908614D01*
X96830001Y-69908614D02*
X96796667Y-69984804D01*
X96796667Y-69984804D02*
X96763334Y-70022900D01*
X96763334Y-70022900D02*
X96696667Y-70060995D01*
X96696667Y-70060995D02*
X96630001Y-70060995D01*
X96630001Y-70060995D02*
X96563334Y-70022900D01*
X96563334Y-70022900D02*
X96530001Y-69984804D01*
X96530001Y-69984804D02*
X96496667Y-69908614D01*
X96496667Y-69908614D02*
X96463334Y-69756233D01*
X96463334Y-69756233D02*
X96463334Y-69565757D01*
X96463334Y-69565757D02*
X96496667Y-69413376D01*
X96496667Y-69413376D02*
X96530001Y-69337185D01*
X96530001Y-69337185D02*
X96563334Y-69299090D01*
X96563334Y-69299090D02*
X96630001Y-69260995D01*
D11*
X93265666Y-88016519D02*
X93265666Y-88730804D01*
X93265666Y-88730804D02*
X93218047Y-88873661D01*
X93218047Y-88873661D02*
X93122809Y-88968900D01*
X93122809Y-88968900D02*
X92979952Y-89016519D01*
X92979952Y-89016519D02*
X92884714Y-89016519D01*
X94170428Y-88016519D02*
X93979952Y-88016519D01*
X93979952Y-88016519D02*
X93884714Y-88064138D01*
X93884714Y-88064138D02*
X93837095Y-88111757D01*
X93837095Y-88111757D02*
X93741857Y-88254614D01*
X93741857Y-88254614D02*
X93694238Y-88445090D01*
X93694238Y-88445090D02*
X93694238Y-88826042D01*
X93694238Y-88826042D02*
X93741857Y-88921280D01*
X93741857Y-88921280D02*
X93789476Y-88968900D01*
X93789476Y-88968900D02*
X93884714Y-89016519D01*
X93884714Y-89016519D02*
X94075190Y-89016519D01*
X94075190Y-89016519D02*
X94170428Y-88968900D01*
X94170428Y-88968900D02*
X94218047Y-88921280D01*
X94218047Y-88921280D02*
X94265666Y-88826042D01*
X94265666Y-88826042D02*
X94265666Y-88587947D01*
X94265666Y-88587947D02*
X94218047Y-88492709D01*
X94218047Y-88492709D02*
X94170428Y-88445090D01*
X94170428Y-88445090D02*
X94075190Y-88397471D01*
X94075190Y-88397471D02*
X93884714Y-88397471D01*
X93884714Y-88397471D02*
X93789476Y-88445090D01*
X93789476Y-88445090D02*
X93741857Y-88492709D01*
X93741857Y-88492709D02*
X93694238Y-88587947D01*
X88905335Y-77540247D02*
X89005335Y-77578342D01*
X89005335Y-77578342D02*
X89038668Y-77616438D01*
X89038668Y-77616438D02*
X89072001Y-77692628D01*
X89072001Y-77692628D02*
X89072001Y-77806914D01*
X89072001Y-77806914D02*
X89038668Y-77883104D01*
X89038668Y-77883104D02*
X89005335Y-77921200D01*
X89005335Y-77921200D02*
X88938668Y-77959295D01*
X88938668Y-77959295D02*
X88672001Y-77959295D01*
X88672001Y-77959295D02*
X88672001Y-77159295D01*
X88672001Y-77159295D02*
X88905335Y-77159295D01*
X88905335Y-77159295D02*
X88972001Y-77197390D01*
X88972001Y-77197390D02*
X89005335Y-77235485D01*
X89005335Y-77235485D02*
X89038668Y-77311676D01*
X89038668Y-77311676D02*
X89038668Y-77387866D01*
X89038668Y-77387866D02*
X89005335Y-77464057D01*
X89005335Y-77464057D02*
X88972001Y-77502152D01*
X88972001Y-77502152D02*
X88905335Y-77540247D01*
X88905335Y-77540247D02*
X88672001Y-77540247D01*
X89672001Y-77959295D02*
X89672001Y-77540247D01*
X89672001Y-77540247D02*
X89638668Y-77464057D01*
X89638668Y-77464057D02*
X89572001Y-77425961D01*
X89572001Y-77425961D02*
X89438668Y-77425961D01*
X89438668Y-77425961D02*
X89372001Y-77464057D01*
X89672001Y-77921200D02*
X89605335Y-77959295D01*
X89605335Y-77959295D02*
X89438668Y-77959295D01*
X89438668Y-77959295D02*
X89372001Y-77921200D01*
X89372001Y-77921200D02*
X89338668Y-77845009D01*
X89338668Y-77845009D02*
X89338668Y-77768819D01*
X89338668Y-77768819D02*
X89372001Y-77692628D01*
X89372001Y-77692628D02*
X89438668Y-77654533D01*
X89438668Y-77654533D02*
X89605335Y-77654533D01*
X89605335Y-77654533D02*
X89672001Y-77616438D01*
X90005334Y-77959295D02*
X90005334Y-77425961D01*
X90005334Y-77578342D02*
X90038668Y-77502152D01*
X90038668Y-77502152D02*
X90072001Y-77464057D01*
X90072001Y-77464057D02*
X90138668Y-77425961D01*
X90138668Y-77425961D02*
X90205334Y-77425961D01*
X90438667Y-77959295D02*
X90438667Y-77425961D01*
X90438667Y-77578342D02*
X90472001Y-77502152D01*
X90472001Y-77502152D02*
X90505334Y-77464057D01*
X90505334Y-77464057D02*
X90572001Y-77425961D01*
X90572001Y-77425961D02*
X90638667Y-77425961D01*
X91138667Y-77921200D02*
X91072000Y-77959295D01*
X91072000Y-77959295D02*
X90938667Y-77959295D01*
X90938667Y-77959295D02*
X90872000Y-77921200D01*
X90872000Y-77921200D02*
X90838667Y-77845009D01*
X90838667Y-77845009D02*
X90838667Y-77540247D01*
X90838667Y-77540247D02*
X90872000Y-77464057D01*
X90872000Y-77464057D02*
X90938667Y-77425961D01*
X90938667Y-77425961D02*
X91072000Y-77425961D01*
X91072000Y-77425961D02*
X91138667Y-77464057D01*
X91138667Y-77464057D02*
X91172000Y-77540247D01*
X91172000Y-77540247D02*
X91172000Y-77616438D01*
X91172000Y-77616438D02*
X90838667Y-77692628D01*
X91572000Y-77959295D02*
X91505334Y-77921200D01*
X91505334Y-77921200D02*
X91472000Y-77845009D01*
X91472000Y-77845009D02*
X91472000Y-77159295D01*
X91672001Y-78035485D02*
X92205334Y-78035485D01*
X92572000Y-77159295D02*
X92572000Y-77730723D01*
X92572000Y-77730723D02*
X92538667Y-77845009D01*
X92538667Y-77845009D02*
X92472000Y-77921200D01*
X92472000Y-77921200D02*
X92372000Y-77959295D01*
X92372000Y-77959295D02*
X92305334Y-77959295D01*
X93205333Y-77959295D02*
X93205333Y-77540247D01*
X93205333Y-77540247D02*
X93172000Y-77464057D01*
X93172000Y-77464057D02*
X93105333Y-77425961D01*
X93105333Y-77425961D02*
X92972000Y-77425961D01*
X92972000Y-77425961D02*
X92905333Y-77464057D01*
X93205333Y-77921200D02*
X93138667Y-77959295D01*
X93138667Y-77959295D02*
X92972000Y-77959295D01*
X92972000Y-77959295D02*
X92905333Y-77921200D01*
X92905333Y-77921200D02*
X92872000Y-77845009D01*
X92872000Y-77845009D02*
X92872000Y-77768819D01*
X92872000Y-77768819D02*
X92905333Y-77692628D01*
X92905333Y-77692628D02*
X92972000Y-77654533D01*
X92972000Y-77654533D02*
X93138667Y-77654533D01*
X93138667Y-77654533D02*
X93205333Y-77616438D01*
X93838666Y-77921200D02*
X93772000Y-77959295D01*
X93772000Y-77959295D02*
X93638666Y-77959295D01*
X93638666Y-77959295D02*
X93572000Y-77921200D01*
X93572000Y-77921200D02*
X93538666Y-77883104D01*
X93538666Y-77883104D02*
X93505333Y-77806914D01*
X93505333Y-77806914D02*
X93505333Y-77578342D01*
X93505333Y-77578342D02*
X93538666Y-77502152D01*
X93538666Y-77502152D02*
X93572000Y-77464057D01*
X93572000Y-77464057D02*
X93638666Y-77425961D01*
X93638666Y-77425961D02*
X93772000Y-77425961D01*
X93772000Y-77425961D02*
X93838666Y-77464057D01*
X94138666Y-77959295D02*
X94138666Y-77159295D01*
X94205333Y-77654533D02*
X94405333Y-77959295D01*
X94405333Y-77425961D02*
X94138666Y-77730723D01*
X94538667Y-78035485D02*
X95072000Y-78035485D01*
X95205333Y-77921200D02*
X95305333Y-77959295D01*
X95305333Y-77959295D02*
X95472000Y-77959295D01*
X95472000Y-77959295D02*
X95538666Y-77921200D01*
X95538666Y-77921200D02*
X95572000Y-77883104D01*
X95572000Y-77883104D02*
X95605333Y-77806914D01*
X95605333Y-77806914D02*
X95605333Y-77730723D01*
X95605333Y-77730723D02*
X95572000Y-77654533D01*
X95572000Y-77654533D02*
X95538666Y-77616438D01*
X95538666Y-77616438D02*
X95472000Y-77578342D01*
X95472000Y-77578342D02*
X95338666Y-77540247D01*
X95338666Y-77540247D02*
X95272000Y-77502152D01*
X95272000Y-77502152D02*
X95238666Y-77464057D01*
X95238666Y-77464057D02*
X95205333Y-77387866D01*
X95205333Y-77387866D02*
X95205333Y-77311676D01*
X95205333Y-77311676D02*
X95238666Y-77235485D01*
X95238666Y-77235485D02*
X95272000Y-77197390D01*
X95272000Y-77197390D02*
X95338666Y-77159295D01*
X95338666Y-77159295D02*
X95505333Y-77159295D01*
X95505333Y-77159295D02*
X95605333Y-77197390D01*
X95838667Y-77425961D02*
X95972000Y-77959295D01*
X95972000Y-77959295D02*
X96105333Y-77578342D01*
X96105333Y-77578342D02*
X96238667Y-77959295D01*
X96238667Y-77959295D02*
X96372000Y-77425961D01*
X96638666Y-77959295D02*
X96638666Y-77425961D01*
X96638666Y-77159295D02*
X96605333Y-77197390D01*
X96605333Y-77197390D02*
X96638666Y-77235485D01*
X96638666Y-77235485D02*
X96672000Y-77197390D01*
X96672000Y-77197390D02*
X96638666Y-77159295D01*
X96638666Y-77159295D02*
X96638666Y-77235485D01*
X96871999Y-77425961D02*
X97138666Y-77425961D01*
X96971999Y-77159295D02*
X96971999Y-77845009D01*
X96971999Y-77845009D02*
X97005333Y-77921200D01*
X97005333Y-77921200D02*
X97071999Y-77959295D01*
X97071999Y-77959295D02*
X97138666Y-77959295D01*
X97671999Y-77921200D02*
X97605333Y-77959295D01*
X97605333Y-77959295D02*
X97471999Y-77959295D01*
X97471999Y-77959295D02*
X97405333Y-77921200D01*
X97405333Y-77921200D02*
X97371999Y-77883104D01*
X97371999Y-77883104D02*
X97338666Y-77806914D01*
X97338666Y-77806914D02*
X97338666Y-77578342D01*
X97338666Y-77578342D02*
X97371999Y-77502152D01*
X97371999Y-77502152D02*
X97405333Y-77464057D01*
X97405333Y-77464057D02*
X97471999Y-77425961D01*
X97471999Y-77425961D02*
X97605333Y-77425961D01*
X97605333Y-77425961D02*
X97671999Y-77464057D01*
X97971999Y-77959295D02*
X97971999Y-77159295D01*
X98271999Y-77959295D02*
X98271999Y-77540247D01*
X98271999Y-77540247D02*
X98238666Y-77464057D01*
X98238666Y-77464057D02*
X98171999Y-77425961D01*
X98171999Y-77425961D02*
X98071999Y-77425961D01*
X98071999Y-77425961D02*
X98005333Y-77464057D01*
X98005333Y-77464057D02*
X97971999Y-77502152D01*
X94067333Y-103610580D02*
X94019714Y-103658200D01*
X94019714Y-103658200D02*
X93876857Y-103705819D01*
X93876857Y-103705819D02*
X93781619Y-103705819D01*
X93781619Y-103705819D02*
X93638762Y-103658200D01*
X93638762Y-103658200D02*
X93543524Y-103562961D01*
X93543524Y-103562961D02*
X93495905Y-103467723D01*
X93495905Y-103467723D02*
X93448286Y-103277247D01*
X93448286Y-103277247D02*
X93448286Y-103134390D01*
X93448286Y-103134390D02*
X93495905Y-102943914D01*
X93495905Y-102943914D02*
X93543524Y-102848676D01*
X93543524Y-102848676D02*
X93638762Y-102753438D01*
X93638762Y-102753438D02*
X93781619Y-102705819D01*
X93781619Y-102705819D02*
X93876857Y-102705819D01*
X93876857Y-102705819D02*
X94019714Y-102753438D01*
X94019714Y-102753438D02*
X94067333Y-102801057D01*
X94400667Y-102705819D02*
X95019714Y-102705819D01*
X95019714Y-102705819D02*
X94686381Y-103086771D01*
X94686381Y-103086771D02*
X94829238Y-103086771D01*
X94829238Y-103086771D02*
X94924476Y-103134390D01*
X94924476Y-103134390D02*
X94972095Y-103182009D01*
X94972095Y-103182009D02*
X95019714Y-103277247D01*
X95019714Y-103277247D02*
X95019714Y-103515342D01*
X95019714Y-103515342D02*
X94972095Y-103610580D01*
X94972095Y-103610580D02*
X94924476Y-103658200D01*
X94924476Y-103658200D02*
X94829238Y-103705819D01*
X94829238Y-103705819D02*
X94543524Y-103705819D01*
X94543524Y-103705819D02*
X94448286Y-103658200D01*
X94448286Y-103658200D02*
X94400667Y-103610580D01*
X97292333Y-103649495D02*
X96892333Y-103649495D01*
X97092333Y-103649495D02*
X97092333Y-102849495D01*
X97092333Y-102849495D02*
X97025666Y-102963780D01*
X97025666Y-102963780D02*
X96959000Y-103039971D01*
X96959000Y-103039971D02*
X96892333Y-103078066D01*
X97892333Y-103116161D02*
X97892333Y-103649495D01*
X97592333Y-103116161D02*
X97592333Y-103535209D01*
X97592333Y-103535209D02*
X97625667Y-103611400D01*
X97625667Y-103611400D02*
X97692333Y-103649495D01*
X97692333Y-103649495D02*
X97792333Y-103649495D01*
X97792333Y-103649495D02*
X97859000Y-103611400D01*
X97859000Y-103611400D02*
X97892333Y-103573304D01*
X106894333Y-79448819D02*
X106561000Y-78972628D01*
X106322905Y-79448819D02*
X106322905Y-78448819D01*
X106322905Y-78448819D02*
X106703857Y-78448819D01*
X106703857Y-78448819D02*
X106799095Y-78496438D01*
X106799095Y-78496438D02*
X106846714Y-78544057D01*
X106846714Y-78544057D02*
X106894333Y-78639295D01*
X106894333Y-78639295D02*
X106894333Y-78782152D01*
X106894333Y-78782152D02*
X106846714Y-78877390D01*
X106846714Y-78877390D02*
X106799095Y-78925009D01*
X106799095Y-78925009D02*
X106703857Y-78972628D01*
X106703857Y-78972628D02*
X106322905Y-78972628D01*
X107846714Y-79448819D02*
X107275286Y-79448819D01*
X107561000Y-79448819D02*
X107561000Y-78448819D01*
X107561000Y-78448819D02*
X107465762Y-78591676D01*
X107465762Y-78591676D02*
X107370524Y-78686914D01*
X107370524Y-78686914D02*
X107275286Y-78734533D01*
X108320000Y-78683295D02*
X108753333Y-78683295D01*
X108753333Y-78683295D02*
X108520000Y-78988057D01*
X108520000Y-78988057D02*
X108620000Y-78988057D01*
X108620000Y-78988057D02*
X108686666Y-79026152D01*
X108686666Y-79026152D02*
X108720000Y-79064247D01*
X108720000Y-79064247D02*
X108753333Y-79140438D01*
X108753333Y-79140438D02*
X108753333Y-79330914D01*
X108753333Y-79330914D02*
X108720000Y-79407104D01*
X108720000Y-79407104D02*
X108686666Y-79445200D01*
X108686666Y-79445200D02*
X108620000Y-79483295D01*
X108620000Y-79483295D02*
X108420000Y-79483295D01*
X108420000Y-79483295D02*
X108353333Y-79445200D01*
X108353333Y-79445200D02*
X108320000Y-79407104D01*
X108986667Y-78683295D02*
X109420000Y-78683295D01*
X109420000Y-78683295D02*
X109186667Y-78988057D01*
X109186667Y-78988057D02*
X109286667Y-78988057D01*
X109286667Y-78988057D02*
X109353333Y-79026152D01*
X109353333Y-79026152D02*
X109386667Y-79064247D01*
X109386667Y-79064247D02*
X109420000Y-79140438D01*
X109420000Y-79140438D02*
X109420000Y-79330914D01*
X109420000Y-79330914D02*
X109386667Y-79407104D01*
X109386667Y-79407104D02*
X109353333Y-79445200D01*
X109353333Y-79445200D02*
X109286667Y-79483295D01*
X109286667Y-79483295D02*
X109086667Y-79483295D01*
X109086667Y-79483295D02*
X109020000Y-79445200D01*
X109020000Y-79445200D02*
X108986667Y-79407104D01*
X109853334Y-78683295D02*
X109920000Y-78683295D01*
X109920000Y-78683295D02*
X109986667Y-78721390D01*
X109986667Y-78721390D02*
X110020000Y-78759485D01*
X110020000Y-78759485D02*
X110053334Y-78835676D01*
X110053334Y-78835676D02*
X110086667Y-78988057D01*
X110086667Y-78988057D02*
X110086667Y-79178533D01*
X110086667Y-79178533D02*
X110053334Y-79330914D01*
X110053334Y-79330914D02*
X110020000Y-79407104D01*
X110020000Y-79407104D02*
X109986667Y-79445200D01*
X109986667Y-79445200D02*
X109920000Y-79483295D01*
X109920000Y-79483295D02*
X109853334Y-79483295D01*
X109853334Y-79483295D02*
X109786667Y-79445200D01*
X109786667Y-79445200D02*
X109753334Y-79407104D01*
X109753334Y-79407104D02*
X109720000Y-79330914D01*
X109720000Y-79330914D02*
X109686667Y-79178533D01*
X109686667Y-79178533D02*
X109686667Y-78988057D01*
X109686667Y-78988057D02*
X109720000Y-78835676D01*
X109720000Y-78835676D02*
X109753334Y-78759485D01*
X109753334Y-78759485D02*
X109786667Y-78721390D01*
X109786667Y-78721390D02*
X109853334Y-78683295D01*
X102997095Y-72035200D02*
X103139952Y-72082819D01*
X103139952Y-72082819D02*
X103378047Y-72082819D01*
X103378047Y-72082819D02*
X103473285Y-72035200D01*
X103473285Y-72035200D02*
X103520904Y-71987580D01*
X103520904Y-71987580D02*
X103568523Y-71892342D01*
X103568523Y-71892342D02*
X103568523Y-71797104D01*
X103568523Y-71797104D02*
X103520904Y-71701866D01*
X103520904Y-71701866D02*
X103473285Y-71654247D01*
X103473285Y-71654247D02*
X103378047Y-71606628D01*
X103378047Y-71606628D02*
X103187571Y-71559009D01*
X103187571Y-71559009D02*
X103092333Y-71511390D01*
X103092333Y-71511390D02*
X103044714Y-71463771D01*
X103044714Y-71463771D02*
X102997095Y-71368533D01*
X102997095Y-71368533D02*
X102997095Y-71273295D01*
X102997095Y-71273295D02*
X103044714Y-71178057D01*
X103044714Y-71178057D02*
X103092333Y-71130438D01*
X103092333Y-71130438D02*
X103187571Y-71082819D01*
X103187571Y-71082819D02*
X103425666Y-71082819D01*
X103425666Y-71082819D02*
X103568523Y-71130438D01*
X104520904Y-72082819D02*
X103949476Y-72082819D01*
X104235190Y-72082819D02*
X104235190Y-71082819D01*
X104235190Y-71082819D02*
X104139952Y-71225676D01*
X104139952Y-71225676D02*
X104044714Y-71320914D01*
X104044714Y-71320914D02*
X103949476Y-71368533D01*
X105603666Y-71571247D02*
X105837000Y-71571247D01*
X105937000Y-71990295D02*
X105603666Y-71990295D01*
X105603666Y-71990295D02*
X105603666Y-71190295D01*
X105603666Y-71190295D02*
X105937000Y-71190295D01*
X106603666Y-71228390D02*
X106536999Y-71190295D01*
X106536999Y-71190295D02*
X106436999Y-71190295D01*
X106436999Y-71190295D02*
X106336999Y-71228390D01*
X106336999Y-71228390D02*
X106270333Y-71304580D01*
X106270333Y-71304580D02*
X106236999Y-71380771D01*
X106236999Y-71380771D02*
X106203666Y-71533152D01*
X106203666Y-71533152D02*
X106203666Y-71647438D01*
X106203666Y-71647438D02*
X106236999Y-71799819D01*
X106236999Y-71799819D02*
X106270333Y-71876009D01*
X106270333Y-71876009D02*
X106336999Y-71952200D01*
X106336999Y-71952200D02*
X106436999Y-71990295D01*
X106436999Y-71990295D02*
X106503666Y-71990295D01*
X106503666Y-71990295D02*
X106603666Y-71952200D01*
X106603666Y-71952200D02*
X106636999Y-71914104D01*
X106636999Y-71914104D02*
X106636999Y-71647438D01*
X106636999Y-71647438D02*
X106503666Y-71647438D01*
X107303666Y-71990295D02*
X106903666Y-71990295D01*
X107103666Y-71990295D02*
X107103666Y-71190295D01*
X107103666Y-71190295D02*
X107036999Y-71304580D01*
X107036999Y-71304580D02*
X106970333Y-71380771D01*
X106970333Y-71380771D02*
X106903666Y-71418866D01*
X107570333Y-71266485D02*
X107603666Y-71228390D01*
X107603666Y-71228390D02*
X107670333Y-71190295D01*
X107670333Y-71190295D02*
X107837000Y-71190295D01*
X107837000Y-71190295D02*
X107903666Y-71228390D01*
X107903666Y-71228390D02*
X107937000Y-71266485D01*
X107937000Y-71266485D02*
X107970333Y-71342676D01*
X107970333Y-71342676D02*
X107970333Y-71418866D01*
X107970333Y-71418866D02*
X107937000Y-71533152D01*
X107937000Y-71533152D02*
X107537000Y-71990295D01*
X107537000Y-71990295D02*
X107970333Y-71990295D01*
X108637000Y-71990295D02*
X108237000Y-71990295D01*
X108437000Y-71990295D02*
X108437000Y-71190295D01*
X108437000Y-71190295D02*
X108370333Y-71304580D01*
X108370333Y-71304580D02*
X108303667Y-71380771D01*
X108303667Y-71380771D02*
X108237000Y-71418866D01*
X109037000Y-71533152D02*
X108970334Y-71495057D01*
X108970334Y-71495057D02*
X108937000Y-71456961D01*
X108937000Y-71456961D02*
X108903667Y-71380771D01*
X108903667Y-71380771D02*
X108903667Y-71342676D01*
X108903667Y-71342676D02*
X108937000Y-71266485D01*
X108937000Y-71266485D02*
X108970334Y-71228390D01*
X108970334Y-71228390D02*
X109037000Y-71190295D01*
X109037000Y-71190295D02*
X109170334Y-71190295D01*
X109170334Y-71190295D02*
X109237000Y-71228390D01*
X109237000Y-71228390D02*
X109270334Y-71266485D01*
X109270334Y-71266485D02*
X109303667Y-71342676D01*
X109303667Y-71342676D02*
X109303667Y-71380771D01*
X109303667Y-71380771D02*
X109270334Y-71456961D01*
X109270334Y-71456961D02*
X109237000Y-71495057D01*
X109237000Y-71495057D02*
X109170334Y-71533152D01*
X109170334Y-71533152D02*
X109037000Y-71533152D01*
X109037000Y-71533152D02*
X108970334Y-71571247D01*
X108970334Y-71571247D02*
X108937000Y-71609342D01*
X108937000Y-71609342D02*
X108903667Y-71685533D01*
X108903667Y-71685533D02*
X108903667Y-71837914D01*
X108903667Y-71837914D02*
X108937000Y-71914104D01*
X108937000Y-71914104D02*
X108970334Y-71952200D01*
X108970334Y-71952200D02*
X109037000Y-71990295D01*
X109037000Y-71990295D02*
X109170334Y-71990295D01*
X109170334Y-71990295D02*
X109237000Y-71952200D01*
X109237000Y-71952200D02*
X109270334Y-71914104D01*
X109270334Y-71914104D02*
X109303667Y-71837914D01*
X109303667Y-71837914D02*
X109303667Y-71685533D01*
X109303667Y-71685533D02*
X109270334Y-71609342D01*
X109270334Y-71609342D02*
X109237000Y-71571247D01*
X109237000Y-71571247D02*
X109170334Y-71533152D01*
X109243905Y-83258819D02*
X109243905Y-82258819D01*
X109243905Y-82258819D02*
X109482000Y-82258819D01*
X109482000Y-82258819D02*
X109624857Y-82306438D01*
X109624857Y-82306438D02*
X109720095Y-82401676D01*
X109720095Y-82401676D02*
X109767714Y-82496914D01*
X109767714Y-82496914D02*
X109815333Y-82687390D01*
X109815333Y-82687390D02*
X109815333Y-82830247D01*
X109815333Y-82830247D02*
X109767714Y-83020723D01*
X109767714Y-83020723D02*
X109720095Y-83115961D01*
X109720095Y-83115961D02*
X109624857Y-83211200D01*
X109624857Y-83211200D02*
X109482000Y-83258819D01*
X109482000Y-83258819D02*
X109243905Y-83258819D01*
X110767714Y-83258819D02*
X110196286Y-83258819D01*
X110482000Y-83258819D02*
X110482000Y-82258819D01*
X110482000Y-82258819D02*
X110386762Y-82401676D01*
X110386762Y-82401676D02*
X110291524Y-82496914D01*
X110291524Y-82496914D02*
X110196286Y-82544533D01*
X106915295Y-86937000D02*
X106915295Y-87270333D01*
X106915295Y-87270333D02*
X106115295Y-87270333D01*
X106496247Y-86703666D02*
X106496247Y-86470333D01*
X106915295Y-86370333D02*
X106915295Y-86703666D01*
X106915295Y-86703666D02*
X106115295Y-86703666D01*
X106115295Y-86703666D02*
X106115295Y-86370333D01*
X106915295Y-86070333D02*
X106115295Y-86070333D01*
X106115295Y-86070333D02*
X106115295Y-85903666D01*
X106115295Y-85903666D02*
X106153390Y-85803666D01*
X106153390Y-85803666D02*
X106229580Y-85737000D01*
X106229580Y-85737000D02*
X106305771Y-85703666D01*
X106305771Y-85703666D02*
X106458152Y-85670333D01*
X106458152Y-85670333D02*
X106572438Y-85670333D01*
X106572438Y-85670333D02*
X106724819Y-85703666D01*
X106724819Y-85703666D02*
X106801009Y-85737000D01*
X106801009Y-85737000D02*
X106877200Y-85803666D01*
X106877200Y-85803666D02*
X106915295Y-85903666D01*
X106915295Y-85903666D02*
X106915295Y-86070333D01*
X91567095Y-90386819D02*
X91567095Y-91196342D01*
X91567095Y-91196342D02*
X91614714Y-91291580D01*
X91614714Y-91291580D02*
X91662333Y-91339200D01*
X91662333Y-91339200D02*
X91757571Y-91386819D01*
X91757571Y-91386819D02*
X91948047Y-91386819D01*
X91948047Y-91386819D02*
X92043285Y-91339200D01*
X92043285Y-91339200D02*
X92090904Y-91291580D01*
X92090904Y-91291580D02*
X92138523Y-91196342D01*
X92138523Y-91196342D02*
X92138523Y-90386819D01*
X92567095Y-90482057D02*
X92614714Y-90434438D01*
X92614714Y-90434438D02*
X92709952Y-90386819D01*
X92709952Y-90386819D02*
X92948047Y-90386819D01*
X92948047Y-90386819D02*
X93043285Y-90434438D01*
X93043285Y-90434438D02*
X93090904Y-90482057D01*
X93090904Y-90482057D02*
X93138523Y-90577295D01*
X93138523Y-90577295D02*
X93138523Y-90672533D01*
X93138523Y-90672533D02*
X93090904Y-90815390D01*
X93090904Y-90815390D02*
X92519476Y-91386819D01*
X92519476Y-91386819D02*
X93138523Y-91386819D01*
X91606333Y-97771295D02*
X91272999Y-97771295D01*
X91272999Y-97771295D02*
X91272999Y-96971295D01*
X91839666Y-97771295D02*
X91839666Y-96971295D01*
X91839666Y-96971295D02*
X92073000Y-97542723D01*
X92073000Y-97542723D02*
X92306333Y-96971295D01*
X92306333Y-96971295D02*
X92306333Y-97771295D01*
X92573000Y-96971295D02*
X93006333Y-96971295D01*
X93006333Y-96971295D02*
X92773000Y-97276057D01*
X92773000Y-97276057D02*
X92873000Y-97276057D01*
X92873000Y-97276057D02*
X92939666Y-97314152D01*
X92939666Y-97314152D02*
X92973000Y-97352247D01*
X92973000Y-97352247D02*
X93006333Y-97428438D01*
X93006333Y-97428438D02*
X93006333Y-97618914D01*
X93006333Y-97618914D02*
X92973000Y-97695104D01*
X92973000Y-97695104D02*
X92939666Y-97733200D01*
X92939666Y-97733200D02*
X92873000Y-97771295D01*
X92873000Y-97771295D02*
X92673000Y-97771295D01*
X92673000Y-97771295D02*
X92606333Y-97733200D01*
X92606333Y-97733200D02*
X92573000Y-97695104D01*
X93673000Y-97771295D02*
X93273000Y-97771295D01*
X93473000Y-97771295D02*
X93473000Y-96971295D01*
X93473000Y-96971295D02*
X93406333Y-97085580D01*
X93406333Y-97085580D02*
X93339667Y-97161771D01*
X93339667Y-97161771D02*
X93273000Y-97199866D01*
X93906334Y-96971295D02*
X94373000Y-96971295D01*
X94373000Y-96971295D02*
X94073000Y-97771295D01*
X94473001Y-97847485D02*
X95006334Y-97847485D01*
X95073000Y-96971295D02*
X95473000Y-96971295D01*
X95273000Y-97771295D02*
X95273000Y-96971295D01*
X95839667Y-96971295D02*
X95973000Y-96971295D01*
X95973000Y-96971295D02*
X96039667Y-97009390D01*
X96039667Y-97009390D02*
X96106333Y-97085580D01*
X96106333Y-97085580D02*
X96139667Y-97237961D01*
X96139667Y-97237961D02*
X96139667Y-97504628D01*
X96139667Y-97504628D02*
X96106333Y-97657009D01*
X96106333Y-97657009D02*
X96039667Y-97733200D01*
X96039667Y-97733200D02*
X95973000Y-97771295D01*
X95973000Y-97771295D02*
X95839667Y-97771295D01*
X95839667Y-97771295D02*
X95773000Y-97733200D01*
X95773000Y-97733200D02*
X95706333Y-97657009D01*
X95706333Y-97657009D02*
X95673000Y-97504628D01*
X95673000Y-97504628D02*
X95673000Y-97237961D01*
X95673000Y-97237961D02*
X95706333Y-97085580D01*
X95706333Y-97085580D02*
X95773000Y-97009390D01*
X95773000Y-97009390D02*
X95839667Y-96971295D01*
X96439666Y-97466533D02*
X96973000Y-97466533D01*
X97273000Y-97047485D02*
X97306333Y-97009390D01*
X97306333Y-97009390D02*
X97373000Y-96971295D01*
X97373000Y-96971295D02*
X97539667Y-96971295D01*
X97539667Y-96971295D02*
X97606333Y-97009390D01*
X97606333Y-97009390D02*
X97639667Y-97047485D01*
X97639667Y-97047485D02*
X97673000Y-97123676D01*
X97673000Y-97123676D02*
X97673000Y-97199866D01*
X97673000Y-97199866D02*
X97639667Y-97314152D01*
X97639667Y-97314152D02*
X97239667Y-97771295D01*
X97239667Y-97771295D02*
X97673000Y-97771295D01*
X97939667Y-97047485D02*
X97973000Y-97009390D01*
X97973000Y-97009390D02*
X98039667Y-96971295D01*
X98039667Y-96971295D02*
X98206334Y-96971295D01*
X98206334Y-96971295D02*
X98273000Y-97009390D01*
X98273000Y-97009390D02*
X98306334Y-97047485D01*
X98306334Y-97047485D02*
X98339667Y-97123676D01*
X98339667Y-97123676D02*
X98339667Y-97199866D01*
X98339667Y-97199866D02*
X98306334Y-97314152D01*
X98306334Y-97314152D02*
X97906334Y-97771295D01*
X97906334Y-97771295D02*
X98339667Y-97771295D01*
X98773001Y-96971295D02*
X98839667Y-96971295D01*
X98839667Y-96971295D02*
X98906334Y-97009390D01*
X98906334Y-97009390D02*
X98939667Y-97047485D01*
X98939667Y-97047485D02*
X98973001Y-97123676D01*
X98973001Y-97123676D02*
X99006334Y-97276057D01*
X99006334Y-97276057D02*
X99006334Y-97466533D01*
X99006334Y-97466533D02*
X98973001Y-97618914D01*
X98973001Y-97618914D02*
X98939667Y-97695104D01*
X98939667Y-97695104D02*
X98906334Y-97733200D01*
X98906334Y-97733200D02*
X98839667Y-97771295D01*
X98839667Y-97771295D02*
X98773001Y-97771295D01*
X98773001Y-97771295D02*
X98706334Y-97733200D01*
X98706334Y-97733200D02*
X98673001Y-97695104D01*
X98673001Y-97695104D02*
X98639667Y-97618914D01*
X98639667Y-97618914D02*
X98606334Y-97466533D01*
X98606334Y-97466533D02*
X98606334Y-97276057D01*
X98606334Y-97276057D02*
X98639667Y-97123676D01*
X98639667Y-97123676D02*
X98673001Y-97047485D01*
X98673001Y-97047485D02*
X98706334Y-97009390D01*
X98706334Y-97009390D02*
X98773001Y-96971295D01*
X107194819Y-98056666D02*
X106718628Y-98389999D01*
X107194819Y-98628094D02*
X106194819Y-98628094D01*
X106194819Y-98628094D02*
X106194819Y-98247142D01*
X106194819Y-98247142D02*
X106242438Y-98151904D01*
X106242438Y-98151904D02*
X106290057Y-98104285D01*
X106290057Y-98104285D02*
X106385295Y-98056666D01*
X106385295Y-98056666D02*
X106528152Y-98056666D01*
X106528152Y-98056666D02*
X106623390Y-98104285D01*
X106623390Y-98104285D02*
X106671009Y-98151904D01*
X106671009Y-98151904D02*
X106718628Y-98247142D01*
X106718628Y-98247142D02*
X106718628Y-98628094D01*
X106194819Y-97723332D02*
X106194819Y-97104285D01*
X106194819Y-97104285D02*
X106575771Y-97437618D01*
X106575771Y-97437618D02*
X106575771Y-97294761D01*
X106575771Y-97294761D02*
X106623390Y-97199523D01*
X106623390Y-97199523D02*
X106671009Y-97151904D01*
X106671009Y-97151904D02*
X106766247Y-97104285D01*
X106766247Y-97104285D02*
X107004342Y-97104285D01*
X107004342Y-97104285D02*
X107099580Y-97151904D01*
X107099580Y-97151904D02*
X107147200Y-97199523D01*
X107147200Y-97199523D02*
X107194819Y-97294761D01*
X107194819Y-97294761D02*
X107194819Y-97580475D01*
X107194819Y-97580475D02*
X107147200Y-97675713D01*
X107147200Y-97675713D02*
X107099580Y-97723332D01*
X112402295Y-98420000D02*
X112402295Y-98753333D01*
X112402295Y-98753333D02*
X112783247Y-98786666D01*
X112783247Y-98786666D02*
X112745152Y-98753333D01*
X112745152Y-98753333D02*
X112707057Y-98686666D01*
X112707057Y-98686666D02*
X112707057Y-98520000D01*
X112707057Y-98520000D02*
X112745152Y-98453333D01*
X112745152Y-98453333D02*
X112783247Y-98420000D01*
X112783247Y-98420000D02*
X112859438Y-98386666D01*
X112859438Y-98386666D02*
X113049914Y-98386666D01*
X113049914Y-98386666D02*
X113126104Y-98420000D01*
X113126104Y-98420000D02*
X113164200Y-98453333D01*
X113164200Y-98453333D02*
X113202295Y-98520000D01*
X113202295Y-98520000D02*
X113202295Y-98686666D01*
X113202295Y-98686666D02*
X113164200Y-98753333D01*
X113164200Y-98753333D02*
X113126104Y-98786666D01*
X112402295Y-97786666D02*
X112402295Y-97919999D01*
X112402295Y-97919999D02*
X112440390Y-97986666D01*
X112440390Y-97986666D02*
X112478485Y-98019999D01*
X112478485Y-98019999D02*
X112592771Y-98086666D01*
X112592771Y-98086666D02*
X112745152Y-98119999D01*
X112745152Y-98119999D02*
X113049914Y-98119999D01*
X113049914Y-98119999D02*
X113126104Y-98086666D01*
X113126104Y-98086666D02*
X113164200Y-98053333D01*
X113164200Y-98053333D02*
X113202295Y-97986666D01*
X113202295Y-97986666D02*
X113202295Y-97853333D01*
X113202295Y-97853333D02*
X113164200Y-97786666D01*
X113164200Y-97786666D02*
X113126104Y-97753333D01*
X113126104Y-97753333D02*
X113049914Y-97719999D01*
X113049914Y-97719999D02*
X112859438Y-97719999D01*
X112859438Y-97719999D02*
X112783247Y-97753333D01*
X112783247Y-97753333D02*
X112745152Y-97786666D01*
X112745152Y-97786666D02*
X112707057Y-97853333D01*
X112707057Y-97853333D02*
X112707057Y-97986666D01*
X112707057Y-97986666D02*
X112745152Y-98053333D01*
X112745152Y-98053333D02*
X112783247Y-98086666D01*
X112783247Y-98086666D02*
X112859438Y-98119999D01*
X112402295Y-97286666D02*
X112402295Y-97219999D01*
X112402295Y-97219999D02*
X112440390Y-97153332D01*
X112440390Y-97153332D02*
X112478485Y-97119999D01*
X112478485Y-97119999D02*
X112554676Y-97086666D01*
X112554676Y-97086666D02*
X112707057Y-97053332D01*
X112707057Y-97053332D02*
X112897533Y-97053332D01*
X112897533Y-97053332D02*
X113049914Y-97086666D01*
X113049914Y-97086666D02*
X113126104Y-97119999D01*
X113126104Y-97119999D02*
X113164200Y-97153332D01*
X113164200Y-97153332D02*
X113202295Y-97219999D01*
X113202295Y-97219999D02*
X113202295Y-97286666D01*
X113202295Y-97286666D02*
X113164200Y-97353332D01*
X113164200Y-97353332D02*
X113126104Y-97386666D01*
X113126104Y-97386666D02*
X113049914Y-97419999D01*
X113049914Y-97419999D02*
X112897533Y-97453332D01*
X112897533Y-97453332D02*
X112707057Y-97453332D01*
X112707057Y-97453332D02*
X112554676Y-97419999D01*
X112554676Y-97419999D02*
X112478485Y-97386666D01*
X112478485Y-97386666D02*
X112440390Y-97353332D01*
X112440390Y-97353332D02*
X112402295Y-97286666D01*
D15*
X113633595Y-63746666D02*
X114205023Y-63746666D01*
X114205023Y-63746666D02*
X114319309Y-63784761D01*
X114319309Y-63784761D02*
X114395500Y-63860952D01*
X114395500Y-63860952D02*
X114433595Y-63975237D01*
X114433595Y-63975237D02*
X114433595Y-64051428D01*
X114433595Y-62946666D02*
X114433595Y-63403809D01*
X114433595Y-63175237D02*
X113633595Y-63175237D01*
X113633595Y-63175237D02*
X113747880Y-63251428D01*
X113747880Y-63251428D02*
X113824071Y-63327618D01*
X113824071Y-63327618D02*
X113862166Y-63403809D01*
D11*
X113652295Y-108836666D02*
X114223723Y-108836666D01*
X114223723Y-108836666D02*
X114338009Y-108874761D01*
X114338009Y-108874761D02*
X114414200Y-108950952D01*
X114414200Y-108950952D02*
X114452295Y-109065237D01*
X114452295Y-109065237D02*
X114452295Y-109141428D01*
X113728485Y-108493809D02*
X113690390Y-108455713D01*
X113690390Y-108455713D02*
X113652295Y-108379523D01*
X113652295Y-108379523D02*
X113652295Y-108189047D01*
X113652295Y-108189047D02*
X113690390Y-108112856D01*
X113690390Y-108112856D02*
X113728485Y-108074761D01*
X113728485Y-108074761D02*
X113804676Y-108036666D01*
X113804676Y-108036666D02*
X113880866Y-108036666D01*
X113880866Y-108036666D02*
X113995152Y-108074761D01*
X113995152Y-108074761D02*
X114452295Y-108531904D01*
X114452295Y-108531904D02*
X114452295Y-108036666D01*
X98670133Y-64864780D02*
X98622514Y-64912400D01*
X98622514Y-64912400D02*
X98479657Y-64960019D01*
X98479657Y-64960019D02*
X98384419Y-64960019D01*
X98384419Y-64960019D02*
X98241562Y-64912400D01*
X98241562Y-64912400D02*
X98146324Y-64817161D01*
X98146324Y-64817161D02*
X98098705Y-64721923D01*
X98098705Y-64721923D02*
X98051086Y-64531447D01*
X98051086Y-64531447D02*
X98051086Y-64388590D01*
X98051086Y-64388590D02*
X98098705Y-64198114D01*
X98098705Y-64198114D02*
X98146324Y-64102876D01*
X98146324Y-64102876D02*
X98241562Y-64007638D01*
X98241562Y-64007638D02*
X98384419Y-63960019D01*
X98384419Y-63960019D02*
X98479657Y-63960019D01*
X98479657Y-63960019D02*
X98622514Y-64007638D01*
X98622514Y-64007638D02*
X98670133Y-64055257D01*
X99622514Y-64960019D02*
X99051086Y-64960019D01*
X99336800Y-64960019D02*
X99336800Y-63960019D01*
X99336800Y-63960019D02*
X99241562Y-64102876D01*
X99241562Y-64102876D02*
X99146324Y-64198114D01*
X99146324Y-64198114D02*
X99051086Y-64245733D01*
X98386800Y-69867495D02*
X97986800Y-69867495D01*
X98186800Y-69867495D02*
X98186800Y-69067495D01*
X98186800Y-69067495D02*
X98120133Y-69181780D01*
X98120133Y-69181780D02*
X98053467Y-69257971D01*
X98053467Y-69257971D02*
X97986800Y-69296066D01*
X98820134Y-69067495D02*
X98886800Y-69067495D01*
X98886800Y-69067495D02*
X98953467Y-69105590D01*
X98953467Y-69105590D02*
X98986800Y-69143685D01*
X98986800Y-69143685D02*
X99020134Y-69219876D01*
X99020134Y-69219876D02*
X99053467Y-69372257D01*
X99053467Y-69372257D02*
X99053467Y-69562733D01*
X99053467Y-69562733D02*
X99020134Y-69715114D01*
X99020134Y-69715114D02*
X98986800Y-69791304D01*
X98986800Y-69791304D02*
X98953467Y-69829400D01*
X98953467Y-69829400D02*
X98886800Y-69867495D01*
X98886800Y-69867495D02*
X98820134Y-69867495D01*
X98820134Y-69867495D02*
X98753467Y-69829400D01*
X98753467Y-69829400D02*
X98720134Y-69791304D01*
X98720134Y-69791304D02*
X98686800Y-69715114D01*
X98686800Y-69715114D02*
X98653467Y-69562733D01*
X98653467Y-69562733D02*
X98653467Y-69372257D01*
X98653467Y-69372257D02*
X98686800Y-69219876D01*
X98686800Y-69219876D02*
X98720134Y-69143685D01*
X98720134Y-69143685D02*
X98753467Y-69105590D01*
X98753467Y-69105590D02*
X98820134Y-69067495D01*
X99653467Y-69334161D02*
X99653467Y-69867495D01*
X99353467Y-69334161D02*
X99353467Y-69753209D01*
X99353467Y-69753209D02*
X99386801Y-69829400D01*
X99386801Y-69829400D02*
X99453467Y-69867495D01*
X99453467Y-69867495D02*
X99553467Y-69867495D01*
X99553467Y-69867495D02*
X99620134Y-69829400D01*
X99620134Y-69829400D02*
X99653467Y-69791304D01*
X87625819Y-62563333D02*
X88340104Y-62563333D01*
X88340104Y-62563333D02*
X88482961Y-62610952D01*
X88482961Y-62610952D02*
X88578200Y-62706190D01*
X88578200Y-62706190D02*
X88625819Y-62849047D01*
X88625819Y-62849047D02*
X88625819Y-62944285D01*
X87959152Y-61658571D02*
X88625819Y-61658571D01*
X87578200Y-61896666D02*
X88292485Y-62134761D01*
X88292485Y-62134761D02*
X88292485Y-61515714D01*
X88370580Y-67984666D02*
X88418200Y-68032285D01*
X88418200Y-68032285D02*
X88465819Y-68175142D01*
X88465819Y-68175142D02*
X88465819Y-68270380D01*
X88465819Y-68270380D02*
X88418200Y-68413237D01*
X88418200Y-68413237D02*
X88322961Y-68508475D01*
X88322961Y-68508475D02*
X88227723Y-68556094D01*
X88227723Y-68556094D02*
X88037247Y-68603713D01*
X88037247Y-68603713D02*
X87894390Y-68603713D01*
X87894390Y-68603713D02*
X87703914Y-68556094D01*
X87703914Y-68556094D02*
X87608676Y-68508475D01*
X87608676Y-68508475D02*
X87513438Y-68413237D01*
X87513438Y-68413237D02*
X87465819Y-68270380D01*
X87465819Y-68270380D02*
X87465819Y-68175142D01*
X87465819Y-68175142D02*
X87513438Y-68032285D01*
X87513438Y-68032285D02*
X87561057Y-67984666D01*
X87561057Y-67603713D02*
X87513438Y-67556094D01*
X87513438Y-67556094D02*
X87465819Y-67460856D01*
X87465819Y-67460856D02*
X87465819Y-67222761D01*
X87465819Y-67222761D02*
X87513438Y-67127523D01*
X87513438Y-67127523D02*
X87561057Y-67079904D01*
X87561057Y-67079904D02*
X87656295Y-67032285D01*
X87656295Y-67032285D02*
X87751533Y-67032285D01*
X87751533Y-67032285D02*
X87894390Y-67079904D01*
X87894390Y-67079904D02*
X88465819Y-67651332D01*
X88465819Y-67651332D02*
X88465819Y-67032285D01*
X87573295Y-66255000D02*
X87573295Y-66188333D01*
X87573295Y-66188333D02*
X87611390Y-66121666D01*
X87611390Y-66121666D02*
X87649485Y-66088333D01*
X87649485Y-66088333D02*
X87725676Y-66055000D01*
X87725676Y-66055000D02*
X87878057Y-66021666D01*
X87878057Y-66021666D02*
X88068533Y-66021666D01*
X88068533Y-66021666D02*
X88220914Y-66055000D01*
X88220914Y-66055000D02*
X88297104Y-66088333D01*
X88297104Y-66088333D02*
X88335200Y-66121666D01*
X88335200Y-66121666D02*
X88373295Y-66188333D01*
X88373295Y-66188333D02*
X88373295Y-66255000D01*
X88373295Y-66255000D02*
X88335200Y-66321666D01*
X88335200Y-66321666D02*
X88297104Y-66355000D01*
X88297104Y-66355000D02*
X88220914Y-66388333D01*
X88220914Y-66388333D02*
X88068533Y-66421666D01*
X88068533Y-66421666D02*
X87878057Y-66421666D01*
X87878057Y-66421666D02*
X87725676Y-66388333D01*
X87725676Y-66388333D02*
X87649485Y-66355000D01*
X87649485Y-66355000D02*
X87611390Y-66321666D01*
X87611390Y-66321666D02*
X87573295Y-66255000D01*
X88297104Y-65721666D02*
X88335200Y-65688333D01*
X88335200Y-65688333D02*
X88373295Y-65721666D01*
X88373295Y-65721666D02*
X88335200Y-65754999D01*
X88335200Y-65754999D02*
X88297104Y-65721666D01*
X88297104Y-65721666D02*
X88373295Y-65721666D01*
X88373295Y-65021666D02*
X88373295Y-65421666D01*
X88373295Y-65221666D02*
X87573295Y-65221666D01*
X87573295Y-65221666D02*
X87687580Y-65288333D01*
X87687580Y-65288333D02*
X87763771Y-65355000D01*
X87763771Y-65355000D02*
X87801866Y-65421666D01*
X87839961Y-64421666D02*
X88373295Y-64421666D01*
X87839961Y-64721666D02*
X88259009Y-64721666D01*
X88259009Y-64721666D02*
X88335200Y-64688333D01*
X88335200Y-64688333D02*
X88373295Y-64621666D01*
X88373295Y-64621666D02*
X88373295Y-64521666D01*
X88373295Y-64521666D02*
X88335200Y-64454999D01*
X88335200Y-64454999D02*
X88297104Y-64421666D01*
D16*
%TO.C,R2*%
X110190000Y-93268800D02*
X110810000Y-93268800D01*
X110190000Y-93268800D02*
G75*
G02*
X108350000Y-93268800I-920000J0D01*
G01*
X108350000Y-93268800D02*
G75*
G02*
X110190000Y-93268800I920000J0D01*
G01*
%TO.C,J3*%
X87830000Y-106600000D02*
X87830000Y-109360000D01*
X93020000Y-106600000D02*
X87830000Y-106600000D01*
X93020000Y-106600000D02*
X93020000Y-109360000D01*
X93020000Y-109360000D02*
X87830000Y-109360000D01*
X94290000Y-106600000D02*
X95670000Y-106600000D01*
X95670000Y-106600000D02*
X95670000Y-107980000D01*
%TO.C,J5*%
X105677000Y-60590901D02*
X105677000Y-70750901D01*
X105677000Y-70750901D02*
X113297000Y-70750901D01*
X106947000Y-70750901D02*
X106947000Y-60590901D01*
X113297000Y-60590901D02*
X105677000Y-60590901D01*
X113297000Y-70750901D02*
X113297000Y-60590901D01*
%TO.C,J7*%
X105791000Y-101092000D02*
X105791000Y-111252000D01*
X105791000Y-111252000D02*
X113411000Y-111252000D01*
X107061000Y-111252000D02*
X107061000Y-101092000D01*
X113411000Y-101092000D02*
X105791000Y-101092000D01*
X113411000Y-111252000D02*
X113411000Y-101092000D01*
%TO.C,U1*%
X88412000Y-70650901D02*
X98632000Y-70650901D01*
X88412000Y-75270901D02*
X88412000Y-70650901D01*
X91672000Y-75270901D02*
X91672000Y-73890901D01*
X95372000Y-75270901D02*
X95372000Y-73890901D01*
X98632000Y-70650901D02*
X98632000Y-75270901D01*
X98632000Y-73890901D02*
X88412000Y-73890901D01*
X98632000Y-75270901D02*
X88412000Y-75270901D01*
%TO.C,J6*%
X88872400Y-78211700D02*
X103572400Y-78211700D01*
X88872400Y-87411700D02*
X88872400Y-78211700D01*
X97672400Y-87411700D02*
X88872400Y-87411700D01*
X102722400Y-78011700D02*
X103772400Y-78011700D01*
X103572400Y-78211700D02*
X103572400Y-80811700D01*
X103572400Y-84711700D02*
X103572400Y-87411700D01*
X103572400Y-87411700D02*
X101672400Y-87411700D01*
X103772400Y-79061700D02*
X103772400Y-78011700D01*
%TO.C,C3*%
X93188800Y-99417200D02*
X98428800Y-99417200D01*
X93188800Y-102157200D02*
X93188800Y-99417200D01*
X98428800Y-99417200D02*
X98428800Y-102157200D01*
X98428800Y-102157200D02*
X93188800Y-102157200D01*
%TO.C,R1*%
X108107200Y-80924400D02*
X108727200Y-80924400D01*
X108107200Y-80924400D02*
G75*
G02*
X106267200Y-80924400I-920000J0D01*
G01*
X106267200Y-80924400D02*
G75*
G02*
X108107200Y-80924400I920000J0D01*
G01*
D10*
%TO.C,S1*%
X101457000Y-72310901D02*
X101457000Y-72810901D01*
X101457000Y-72310901D02*
X101957000Y-72310901D01*
X101457000Y-76510901D02*
X101457000Y-76010901D01*
X101457000Y-76510901D02*
X101957000Y-76510901D01*
X113357000Y-72310901D02*
X112857000Y-72310901D01*
X113357000Y-72310901D02*
X113357000Y-72810901D01*
X113357000Y-76510901D02*
X112857000Y-76510901D01*
X113357000Y-76510901D02*
X113357000Y-76010901D01*
D16*
%TO.C,D1*%
X107707000Y-85065901D02*
X107707000Y-88155901D01*
X107707000Y-85066071D02*
G75*
G02*
X113257000Y-86610901I2560000J-1544830D01*
G01*
X113257000Y-86610901D02*
G75*
G02*
X107707000Y-88155731I-2990000J0D01*
G01*
X112767000Y-86610901D02*
G75*
G02*
X107767000Y-86610901I-2500000J0D01*
G01*
X107767000Y-86610901D02*
G75*
G02*
X112767000Y-86610901I2500000J0D01*
G01*
%TO.C,U2*%
X91257600Y-91619200D02*
X101477600Y-91619200D01*
X91257600Y-92999200D02*
X101477600Y-92999200D01*
X91257600Y-96239200D02*
X91257600Y-91619200D01*
X94517600Y-91619200D02*
X94517600Y-92999200D01*
X98217600Y-91619200D02*
X98217600Y-92999200D01*
X101477600Y-91619200D02*
X101477600Y-96239200D01*
X101477600Y-96239200D02*
X91257600Y-96239200D01*
%TO.C,R3*%
X109478800Y-97840800D02*
X110098800Y-97840800D01*
X109478800Y-97840800D02*
G75*
G02*
X107638800Y-97840800I-920000J0D01*
G01*
X107638800Y-97840800D02*
G75*
G02*
X109478800Y-97840800I920000J0D01*
G01*
%TO.C,J1*%
X114950000Y-60825000D02*
X116330000Y-60825000D01*
X114950000Y-62205000D02*
X114950000Y-60825000D01*
X114950000Y-63475000D02*
X114950000Y-66125000D01*
X114950000Y-63475000D02*
X117710000Y-63475000D01*
X114950000Y-66125000D02*
X117710000Y-66125000D01*
X117710000Y-63475000D02*
X117710000Y-66125000D01*
%TO.C,J2*%
X114740000Y-105535000D02*
X116120000Y-105535000D01*
X114740000Y-106915000D02*
X114740000Y-105535000D01*
X114740000Y-108185000D02*
X114740000Y-110835000D01*
X114740000Y-108185000D02*
X117500000Y-108185000D01*
X114740000Y-110835000D02*
X117500000Y-110835000D01*
X117500000Y-108185000D02*
X117500000Y-110835000D01*
%TO.C,C1*%
X96216800Y-65635200D02*
X101456800Y-65635200D01*
X96216800Y-68375200D02*
X96216800Y-65635200D01*
X101456800Y-65635200D02*
X101456800Y-68375200D01*
X101456800Y-68375200D02*
X96216800Y-68375200D01*
%TO.C,J4*%
X89171000Y-63610000D02*
X89171000Y-62230000D01*
X90551000Y-63610000D02*
X89171000Y-63610000D01*
X91821000Y-60850000D02*
X97011000Y-60850000D01*
X91821000Y-63610000D02*
X91821000Y-60850000D01*
X91821000Y-63610000D02*
X97011000Y-63610000D01*
X97011000Y-63610000D02*
X97011000Y-60850000D01*
%TO.C,C2*%
X88941600Y-65533600D02*
X94181600Y-65533600D01*
X88941600Y-68273600D02*
X88941600Y-65533600D01*
X94181600Y-65533600D02*
X94181600Y-68273600D01*
X94181600Y-68273600D02*
X88941600Y-68273600D01*
%TD*%
M02*
